<?xml version="1.0" encoding="utf-8"?>
<!-- Generator: Adobe Illustrator 25.1.0, SVG Export Plug-In . SVG Version: 6.00 Build 0)  -->
<svg version="1.1" xmlns="http://www.w3.org/2000/svg" xmlns:xlink="http://www.w3.org/1999/xlink" x="0px" y="0px"
	 viewBox="0 0 807.46 374.7" style="enable-background:new 0 0 807.46 374.7;" xml:space="preserve">
<style type="text/css">
	.etast6{fill:#FFFFFF;}
</style>
<g id="Layer_1">
	<g>
		<g>
			<defs>
				<path id="SVGID_3_" d="M623,321.86c-0.97,1.95-2.33,3.81-2.86,5.87c-3.04,11.93-11.24,17.93-22.77,20.11
					c-7.26,1.37-14.49,1.28-21.56-1.23c-0.67-0.24-1.55-0.1-2.27,0.08c-8.06,2.03-16.16,2.8-24.26,0.46
					c-2.81-0.81-5.5-2.09-8.13-3.38c-1.1-0.54-1.9-0.65-3.01-0.17c-6.1,2.66-12.46,4.06-19.15,3.64c-4.19-0.26-8.03-1.59-11.46-3.96
					c-1.11-0.77-1.91-0.68-3.08-0.1c-11.57,5.76-23.58,7.36-36.04,3.28c-2.26-0.74-4.38-1.99-6.45-3.19
					c-0.99-0.58-1.72-0.73-2.79-0.22c-5.83,2.84-11.94,4.77-18.43,5.43c-6.01,0.61-11.81,0-17.08-3.21
					c-1.11-0.68-1.94-0.66-3.13-0.17c-11.01,4.53-22.17,4.99-33.14,0.15c-2.65-1.17-4.57-1.29-7.12-0.2
					c-6.66,2.85-13.71,4.21-20.93,4.23c-12.27,0.04-22.15-4.89-29.4-14.88c-0.42-0.58-0.84-1.15-1.34-1.84
					c-0.78,0.59-1.44,1.1-2.1,1.61c-9.28,7.1-19.46,12.25-31.14,13.93c-8.58,1.24-17.07,1.37-24.98-3.12
					c-0.53-0.3-1.5-0.11-2.16,0.14c-10.21,3.78-20.57,4.98-31.12,1.66c-1.94-0.61-3.56-0.65-5.5,0.04
					c-10.57,3.77-20.88,3.43-30.83-2.19c-0.66-0.37-1.84-0.2-2.63,0.1c-10.16,3.92-20.49,5.22-31.12,2.14
					c-5.4-1.57-9.98-4.45-13.85-8.83c-1.16,1.25-2.24,2.42-3.34,3.58c-13.68,14.5-29.93,24.75-49.37,29.59
					c-11.94,2.97-24.1,4.13-36.38,3.16c-7.85-0.62-15.71-1.42-23.48-2.65c-10.18-1.62-18-10.67-18.98-20.97
					c-0.5-5.25,0.38-10.21,2.47-14.96c3.55-8.09,8.64-15.05,15.83-20.29c7.15-5.22,15-6.91,23.74-4.57
					c10.63,2.85,21.23,2.66,31.5-1.61c2.73-1.14,5.17-2.97,7.84-4.54c-0.4-0.63-0.51-0.91-0.71-1.11
					c-8.45-8.32-9.66-18.14-5.97-28.96c0.61-1.8,2.08-3.63,1.88-5.3c-0.2-1.6-2.08-2.98-3.16-4.5c-5.13-7.18-7.8-15.2-7.76-24
					c0.04-9.27,3.27-17.57,8.55-25.08c7.78-11.06,18.58-18.02,31.11-22.54c9.17-3.3,18.64-5.45,28.38-5.77
					c12.1-0.4,24.23-0.24,36.34-0.5c3.58-0.08,7.15-0.74,10.73-1.15c7.73-0.88,15.47-1.82,23.1,0.56
					c10.1,3.15,18.61,12.26,17.08,26.48c-0.3,2.82-1.54,5.54-2.34,8.31c-0.22,0.78-0.4,1.58-0.67,2.64
					c2.32-0.62,4.36-1.07,6.32-1.76c0.51-0.18,0.92-1.04,1.11-1.67c1.56-5.11,3.17-10.22,4.56-15.38
					c3.17-11.74,11.1-18.27,22.65-20.72c7.04-1.49,14.13-1.43,21.09,0.66c12.42,3.73,19.8,14.78,18.29,27.65
					c-0.3,2.53-1.36,4.97-2.07,7.45c-0.19,0.67-0.37,1.35-0.63,2.31c1.71,0.1,3.18,0.17,4.65,0.29c4.73,0.38,9.39,0.66,14.17-0.23
					c7.26-1.35,14.58-0.82,21.5,1.94c2.91,1.16,5.58,3.03,8.18,4.85c1.1,0.77,1.72,0.83,2.79,0.16c9.13-5.8,19.15-8.62,29.95-8.63
					c5.02,0,9.8,1.17,14.23,3.55c1.35,0.73,2.47,0.61,3.91,0.29c4.68-1.05,9.41-1.9,14.15-2.7c4.57-0.78,8.61,1.19,12.72,2.71
					c3.21,1.19,6.45,2.32,9.65,3.56c1.12,0.43,1.96,0.32,2.97-0.37c5.97-4.09,12.46-6.65,19.83-5.9c2.89,0.3,5.72,1.2,8.84,1.88
					c0.76-2.46,1.6-5.13,2.41-7.81c1.21-3.96,2.45-7.92,3.61-11.9c2.73-9.41,8.92-15.42,18.22-18.13c9.07-2.64,18.23-2.81,27.17,0.5
					c10.94,4.05,17.34,13.44,16.24,26.3c-0.19,2.23-1.23,4.38-1.88,6.57c-0.22,0.74-0.42,1.48-0.68,2.43
					c3.81,0.41,7.43,0.82,11.06,1.19c4.01,0.41,8.02,0.83,12.03,1.18c0.81,0.07,1.67,0,2.45-0.22c9.13-2.54,18.27-2.84,27.44-0.22
					c0.71,0.2,1.57,0.3,2.26,0.11c8.29-2.35,16.63-2.26,25.03-0.72c3.66,0.67,7.36,1.14,11.05,1.62c0.66,0.09,1.42-0.16,2.07-0.42
					c9.64-3.85,18.91-3.4,27.84,2.16c0.59,0.37,1.74,0.3,2.41-0.02c7.51-3.57,15.39-5.56,23.7-5.6
					c15.77-0.08,28.19,9.93,31.41,25.35c0.62,2.98,0.61,6.09,0.97,9.13c0.08,0.71,0.29,1.62,0.78,2.03
					c7.48,6.22,10.02,14.23,8.45,23.61c-1.91,11.45-5.35,22.44-10.5,32.87c-2.81,5.7-7.67,9.53-12.38,13.47
					c-10.13,8.45-21.23,15.26-33.85,19.31c-8.67,2.78-17.59,3.91-26.51,1.49c-12.73-3.44-20.54-12.19-25.01-24.27
					c-0.22-0.59-0.4-1.2-0.6-1.8C623.39,321.96,623.19,321.91,623,321.86z M318.12,147.79c0.21,0.61,0.42,1.22,0.64,1.82
					c2.88,7.97,7.6,14.53,15.08,18.74c9.8,5.51,20.09,5.71,30.52,2c2.05-0.73,3.74-0.72,5.82-0.02c11.9,4.02,23.48,2.6,34.77-2.46
					c0.95-0.43,1.71-0.8,2.8-0.08c8.19,5.4,17.2,6.42,26.69,4.89c6.84-1.11,13.29-3.36,19.37-6.65c1.43-0.77,2.46-0.84,3.85,0.28
					c3.45,2.79,7.38,4.78,11.72,5.82c9.36,2.24,18.57,1.3,27.56-1.73c13.27-4.47,24.79-11.93,35.36-20.99
					c4.72-4.05,8.94-8.41,11.41-14.24c4.38-10.33,7.98-20.9,9.36-32.09c1.04-8.5-1.75-15.65-8.29-21.24
					c-0.88-0.75-1.1-1.5-1.23-2.59c-0.48-4.04-0.68-8.2-1.82-12.07c-3.94-13.34-14.95-21.71-28.84-22.24
					c-8.39-0.32-16.39,1.52-24,4.99c-1.59,0.73-2.6,0.74-4.14-0.34c-2.28-1.6-4.86-2.92-7.5-3.83c-5.46-1.89-11.17-1.65-16.81-0.99
					c-11.24,1.31-21.64,5.07-31.17,11.18c-1.02,0.66-1.62,0.55-2.44-0.29c-5.58-5.75-12.58-8.44-20.41-8.78
					c-13.84-0.6-27.28,1.28-39.88,7.46c-0.9,0.44-1.46,0.28-2.21-0.38c-1.61-1.43-3.25-2.92-5.09-4.01c-8.47-5-17.3-5.31-26.38-1.76
					c-0.79,0.31-1.78,0.59-2.56,0.41c-5.22-1.26-10.49-1.95-15.86-2.32c-7.91-0.55-15.63-0.04-23.15,2.6
					c-0.47,0.17-0.98,0.23-1.75,0.41c0.29-0.95,0.51-1.63,0.71-2.3c1-3.34,2.54-6.62,2.89-10.02c1.48-14.48-6.75-23.77-17.32-27.42
					c-7.91-2.73-15.97-2.79-24.02-0.71c-10.36,2.67-17.45,8.81-20.35,19.4c-1.53,5.56-3.35,11.03-4.97,16.57
					c-0.35,1.2-0.8,1.59-2.13,1.38c-1.77-0.28-3.6-0.3-5.39-0.23c-4.67,0.18-8.96,1.69-13.01,3.95c-1.89,1.05-3.79,1.1-5.65-0.05
					c-8.03-4.95-16.32-5.2-24.83-1.4c-1.69,0.75-3.3,0.78-5.08,0.25c-2.46-0.74-4.98-1.33-7.51-1.82c-1.69-0.33-3.44-0.39-5.35-0.59
					c0.2-0.84,0.35-1.52,0.52-2.21c2.36-9.83,0.68-18.69-6.61-26.01c-4.98-5.01-11.26-7.01-18.22-7.03
					c-13.14-0.02-26.29-0.02-39.43,0c-9.94,0.01-19.86-0.1-29.78,0.99C52.26,13.31,41,16.04,30.47,21.42
					c-8.7,4.45-16.33,10.2-21.96,18.37C-3.06,56.58-2.85,75.51,9.24,91.13c7.05,9.1,16.28,15.08,27.24,18.45
					c0.96,0.3,1.92,0.6,2.92,0.91c-0.1,0.44-0.14,0.73-0.22,1.01c-1.9,6.33-3.71,12.69-5.74,18.97c-1.89,5.86-3.07,11.72-2,17.91
					c2.03,11.76,12.18,21.3,24.08,21.52c18.08,0.33,36.16,0.08,54.25,0.1c0.95,0,1.97-0.04,2.83,0.28
					c4.86,1.84,9.88,2.55,15.05,2.55c9.04-0.01,18.09-0.02,27.13,0c5.51,0.02,10.77-1.08,15.72-3.51c2.24-1.1,4.3-1.1,6.5,0.19
					c3.98,2.34,8.35,3.41,12.96,3.3c7.95-0.19,15.47-2.16,22.57-5.7c1.38-0.69,2.38-0.73,3.72,0.29c4.33,3.26,9.31,5.12,14.72,5.4
					c10.78,0.55,21.12-1.31,30.75-6.39c0.93-0.49,1.54-0.33,2.43,0.21c2.56,1.55,5.12,3.25,7.91,4.25
					c6.54,2.36,13.34,2.43,20.15,1.23c11.81-2.1,20.4-7.95,23.5-20.22c0.37-1.47,1.22-2.81,1.85-4.22
					C317.73,147.71,317.92,147.75,318.12,147.79z M586.98,120.88c-0.32,0.95-1,1.92-1.79,2.53c-3.2,2.5-5.72,5.51-7.43,9.19
					c-5.45,11.73-1.38,25.98,10.11,33.3c12.86,8.2,26.39,9.03,40.15,2.04c1.17-0.6,1.92-0.53,3.05,0.13
					c2.01,1.18,4.12,2.32,6.34,2.99c10.33,3.12,20.33,2.13,29.98-2.71c0.57-0.28,1.59-0.34,2.07-0.01
					c6.41,4.41,13.46,5.12,20.93,3.98c6.56-1,12.7-3.22,18.55-6.28c1.09-0.57,1.85-0.57,2.89,0.25c3.54,2.77,7.49,4.83,11.9,5.88
					c8.85,2.11,17.61,1.35,26.19-1.34c13.13-4.13,24.47-11.4,35.09-20.03c6.81-5.54,12.11-11.97,14.99-20.35
					c3.31-9.61,6.9-19.15,7.44-29.43c0.4-7.7-2.42-14.13-8.34-19.12c-0.89-0.75-1.08-1.52-1.22-2.6c-0.48-3.99-0.7-8.08-1.81-11.9
					c-3.95-13.51-15-22.02-29.06-22.43c-11.33-0.34-21.76,2.85-31.26,9.04c-1.08,0.71-1.73,0.78-2.69-0.27
					c-3.71-4.02-8.33-6.5-13.71-7.49c-1.7-0.31-3.44-0.42-5.35-0.65c0.71-2.25,1.32-4.39,2.05-6.47c1.44-4.1,3.19-8.04,2.73-12.66
					c-0.5-5.06-1.85-9.68-4.96-13.71c-4.65-6.02-10.99-9.6-18.18-11.44c-12.33-3.16-23.18-0.93-31.4,9.65
					c-0.34,0.43-1.1,0.74-1.67,0.75c-2.29,0.04-4.58-0.04-6.87-0.11c-11.44-0.33-22.87-0.91-34.31,0.07
					c-10.66,0.91-21.11,2.85-31.22,6.33c-11.71,4.03-22.11,10.14-30.11,19.82c-11.39,13.8-13.51,31.77-5.42,46.58
					c5.54,10.13,13.76,17.45,24.22,22.2c3.54,1.61,7.3,2.74,11.25,4.2C589.08,114.14,588.12,117.54,586.98,120.88z"/>
			</defs>
			<clipPath id="SVGID_1_">
				<use xlink:href="#SVGID_3_"  style="overflow:visible;"/>
			</clipPath>
			<linearGradient id="SVGID_2_" gradientUnits="userSpaceOnUse" x1="403.1147" y1="0.1529" x2="403.1147" y2="375.5535">
				<stop  offset="0" style="stop-color:#6F4DFF"/>
				<stop  offset="1" style="stop-color:#4000FF"/>
			</linearGradient>
			<rect x="-96.89" y="0.15" style="clip-path:url(#SVGID_1_);fill:url(#SVGID_2_);" width="1000" height="375.4"/>
		</g>
		<g>
			<path class="etast6" d="M120.91,131.25c0,1.37-0.44,3.01-1.32,4.92c-0.88,1.91-2.06,3.74-3.52,5.51c-1.47,1.76-3.08,3.25-4.85,4.48
				c-1.76,1.22-3.52,1.84-5.29,1.84H57.19c-1.86,0-3.13-0.44-3.82-1.32c-0.69-0.88-1.03-1.86-1.03-2.94c0-0.88,0.15-1.76,0.44-2.64
				L77.6,59.15c0.2-0.69,0.34-1.27,0.44-1.76c0.1-0.49,0.15-0.93,0.15-1.32c0-0.98-0.32-1.66-0.95-2.06
				c-0.64-0.39-1.64-0.68-3.01-0.88l-9.69-1.32c-2.06-0.29-4.11-0.44-6.17-0.44c-2.64,0-5.29,0.27-7.93,0.81
				c-2.64,0.54-5.07,1.37-7.27,2.5c-2.2,1.13-3.99,2.57-5.36,4.33c-1.37,1.76-2.06,3.87-2.06,6.31c0,1.86,0.61,3.43,1.84,4.7
				s2.79,2.33,4.7,3.16c1.91,0.83,4.09,1.42,6.53,1.76c2.45,0.34,4.89,0.51,7.34,0.51c1.37,0,2.79-0.22,4.26-0.66
				c1.47-0.44,2.89-0.9,4.26-1.39c1.57-0.59,3.08-1.27,4.55-2.06c0.98,0,1.47,0.54,1.47,1.61c0,1.08-0.42,2.52-1.25,4.33
				c-0.83,1.81-1.86,3.57-3.08,5.29c-1.22,1.71-2.59,3.21-4.11,4.48c-1.52,1.27-3.01,1.91-4.48,1.91c-1.37,0.2-2.67,0.34-3.89,0.44
				c-1.22,0.1-2.37,0.15-3.45,0.15c-3.52,0-7.02-0.64-10.5-1.91c-3.47-1.27-6.58-3.01-9.32-5.21s-4.97-4.75-6.68-7.64
				c-1.71-2.89-2.57-5.95-2.57-9.18c0-2.25,0.39-4.36,1.17-6.31c2.06-5.38,5.29-9.72,9.69-13c4.4-3.28,9.23-5.82,14.46-7.63
				c5.24-1.81,10.47-3.04,15.71-3.67c5.24-0.64,9.72-1,13.44-1.1h57.27c1.57,0,2.35,0.88,2.35,2.64c0,1.37-0.44,3.01-1.32,4.92
				c-0.88,1.91-2.06,3.74-3.52,5.51c-1.47,1.76-3.08,3.25-4.85,4.48c-1.76,1.22-3.52,1.84-5.29,1.84c-3.13,0-6.29-0.03-9.47-0.07
				c-3.18-0.05-6.34-0.07-9.47-0.07c-0.78,0-1.88,0.32-3.3,0.95c-1.42,0.64-2.52,2.33-3.3,5.07L88.9,78.83
				c-0.39,1.17-0.59,2.15-0.59,2.94c0,0.98,0.27,1.54,0.81,1.69c0.54,0.15,1.05,0.22,1.54,0.22h6.39c2.5,0,4.97,0.02,7.42,0.07
				c2.45,0.05,4.6,0.07,6.46,0.07h3.67c1.57,0,2.35,0.83,2.35,2.5c0,0.88-0.27,1.86-0.81,2.94c-0.54,1.08-1.25,2.08-2.13,3.01
				c-0.88,0.93-1.93,1.74-3.16,2.42c-1.22,0.68-2.57,1.03-4.04,1.03H87.44c-0.78,0-1.64,0.17-2.57,0.51
				c-0.93,0.34-1.74,1.74-2.42,4.18l-7.05,23.49c-0.2,0.49-0.29,1.13-0.29,1.91c0,1.96,1.32,2.94,3.96,2.94h39.5
				C120.13,128.75,120.91,129.58,120.91,131.25z"/>
			<path class="etast6" d="M146.31,111.87c0.39-0.49,0.88-1.2,1.47-2.13c0.59-0.93,1.2-1.93,1.84-3.01s1.25-2.1,1.84-3.08
				c0.59-0.98,1.08-1.71,1.47-2.2c2.94-3.72,6.04-7.51,9.32-11.38c3.28-3.87,6.46-7.39,9.54-10.57c3.08-3.18,5.87-5.78,8.37-7.78
				c2.5-2.01,4.38-3.01,5.65-3.01c0.78,0,1.47,0.39,2.06,1.17s0.88,1.76,0.88,2.94c0,0.88-0.24,1.91-0.73,3.08
				c-0.39,0.88-1.32,3.21-2.79,6.97c-1.47,3.77-3.13,8.13-4.99,13.07c-1.86,4.94-3.7,10.01-5.51,15.2
				c-1.81,5.19-3.21,9.69-4.18,13.51c0.39-0.39,1.61-2.05,3.67-4.99c2.06-2.94,4.58-6.49,7.56-10.64c2.99-4.16,6.31-8.59,9.98-13.29
				c3.67-4.7,7.24-9.06,10.72-13.07c3.47-4.01,6.73-7.34,9.76-9.99c3.03-2.64,5.48-3.96,7.34-3.96c0.78,0,1.47,0.39,2.06,1.17
				c0.59,0.78,0.88,1.76,0.88,2.94c0,0.88-0.24,1.91-0.73,3.08c-0.29,0.59-0.91,2.1-1.84,4.55c-0.93,2.45-2.03,5.41-3.3,8.88
				c-1.27,3.47-2.62,7.22-4.04,11.23c-1.42,4.01-2.72,7.88-3.89,11.6c-1.17,3.72-2.15,7.07-2.94,10.06
				c-0.78,2.99-1.17,5.16-1.17,6.53c0,0.98,0.24,1.47,0.73,1.47c1.17,0,3.06-1.03,5.65-3.08c2.59-2.06,5.36-4.58,8.3-7.56
				c2.94-2.99,5.78-6.14,8.52-9.47c2.74-3.33,4.85-6.31,6.31-8.96c0.39-0.78,0.68-1.17,0.88-1.17c0.1,0,0.15,0.1,0.15,0.29
				c0,0.78-0.39,2.59-1.17,5.43c-0.78,2.84-1.74,5.87-2.86,9.1c-1.13,3.23-2.23,6.26-3.3,9.1s-1.91,4.65-2.5,5.43
				c-1.47,1.86-3.55,4.04-6.24,6.53c-2.69,2.5-5.73,4.85-9.1,7.05c-3.38,2.2-6.95,4.06-10.72,5.58c-3.77,1.52-7.41,2.28-10.94,2.28
				c-0.98,0-1.66-0.47-2.06-1.4c-0.39-0.93-0.59-2.18-0.59-3.74c0-3.03,0.46-6.53,1.4-10.5c0.93-3.97,2.01-7.78,3.23-11.45
				s2.47-6.93,3.74-9.76c1.27-2.84,2.3-4.7,3.08-5.58c-0.29,0.39-0.81,1.03-1.54,1.91c-0.73,0.88-1.52,1.86-2.35,2.94
				c-0.83,1.08-1.69,2.15-2.57,3.23c-0.88,1.08-1.62,2.01-2.2,2.79c-2.15,2.84-4.6,6.09-7.34,9.76c-2.74,3.67-5.63,7.12-8.66,10.35
				c-3.03,3.23-6.09,5.95-9.18,8.15c-3.08,2.2-6,3.3-8.74,3.3c-1.76,0-2.64-1.66-2.64-4.99c0-3.03,0.42-6.39,1.25-10.06
				c0.83-3.67,1.84-7.27,3.01-10.79c1.17-3.52,2.42-6.75,3.74-9.69c1.32-2.94,2.42-5.19,3.3-6.75c-0.88,0.88-2.37,2.35-4.48,4.4
				c-2.1,2.06-4.38,4.38-6.83,6.98c-2.45,2.59-4.89,5.31-7.34,8.15c-2.45,2.84-4.45,5.53-6.02,8.08c-0.49,1.96-0.98,3.65-1.47,5.07
				c-0.49,1.42-0.88,2.67-1.17,3.74l-1.03,3.08c-0.2,0.88-1.25,1.57-3.16,2.06c-1.91,0.49-3.94,0.73-6.09,0.73
				c-1.76,0-3.33-0.2-4.7-0.59c-1.37-0.39-2.06-0.98-2.06-1.76c0-0.1,0.02-0.17,0.07-0.22c0.05-0.05,0.07-0.12,0.07-0.22
				l21.14-70.04c-0.2,0.1-0.44,0.15-0.73,0.15c-0.29,0.1-0.83,0.15-1.61,0.15c-0.88,0-1.74-0.17-2.57-0.51
				c-0.83-0.34-1.25-1.05-1.25-2.13c0-0.98,0.49-1.89,1.47-2.72c0.98-0.83,2.2-1.54,3.67-2.13c1.47-0.59,3.13-1.05,4.99-1.4
				c1.86-0.34,3.67-0.51,5.43-0.51c2.45,0,4.55,0.39,6.31,1.17c1.76,0.78,2.64,2.06,2.64,3.82c0,0.39-0.1,0.98-0.29,1.76l-7.93,25.7
				L146.31,111.87z"/>
			<path class="etast6" d="M290.06,107.31c0.88,0,1.32,0.73,1.32,2.2c0,1.86-0.34,3.62-1.03,5.29c-0.69,1.66-1.57,3.11-2.64,4.33
				c-1.08,1.22-2.32,2.2-3.74,2.94c-1.42,0.73-2.91,1.1-4.48,1.1s-2.91-0.39-4.04-1.17c-1.13-0.78-1.84-1.86-2.13-3.23
				c-0.29,1.66-1.27,4.26-2.94,7.78c-1.66,3.52-4.11,7.1-7.34,10.72c-3.23,3.62-7.34,6.8-12.33,9.54
				c-4.99,2.74-11.01,4.11-18.06,4.11c-2.84,0-5.11-1.37-6.83-4.11c-1.71-2.74-2.57-6.31-2.57-10.72c0-3.03,0.54-6.56,1.62-10.57
				c0.2-0.59,0.73-2.37,1.62-5.36c0.88-2.99,1.98-6.68,3.3-11.09c1.32-4.41,2.81-9.32,4.48-14.76c1.66-5.43,3.33-10.94,4.99-16.52
				c3.92-13.12,8.32-27.75,13.21-43.9c0.2-1.27,1.27-2.2,3.23-2.79c1.96-0.59,4.06-0.88,6.31-0.88c2.06,0,3.89,0.27,5.51,0.81
				c1.62,0.54,2.42,1.35,2.42,2.42v0.44c-4.7,15.17-8.96,28.93-12.77,41.26c-1.66,5.29-3.3,10.5-4.92,15.64
				c-1.62,5.14-3.08,9.81-4.41,14.02c-1.32,4.21-2.42,7.78-3.3,10.72c-0.88,2.94-1.47,4.75-1.76,5.43c-1.27,3.82-1.91,6.8-1.91,8.96
				c0,2.06,0.49,3.08,1.47,3.08c3.13,0,5.85-1.13,8.15-3.38c2.3-2.25,4.18-5.07,5.65-8.44c1.47-3.38,2.55-7.02,3.23-10.94
				c0.68-3.92,1.03-7.54,1.03-10.87c0-1.37-0.1-2.64-0.29-3.82c-0.2-1.17-0.29-2.25-0.29-3.23c0-1.08,0.91-1.91,2.72-2.5
				c1.81-0.59,3.79-0.88,5.95-0.88c2.15,0,4.11,0.29,5.87,0.88c1.76,0.59,2.64,1.47,2.64,2.64c0,0.49-0.17,1.54-0.51,3.16
				c-0.34,1.62-0.51,3.35-0.51,5.21c0,2.84,0.49,4.82,1.47,5.95c0.98,1.13,3.03,1.69,6.17,1.69c0.78,0,1.66-0.05,2.64-0.15
				c0.98-0.1,2.01-0.39,3.08-0.88C289.52,107.36,289.77,107.31,290.06,107.31z"/>
			<path class="etast6" d="M297.4,78.09c-0.29,0.1-0.83,0.15-1.61,0.15c-0.88,0-1.74-0.17-2.57-0.51c-0.83-0.34-1.25-1.05-1.25-2.13
				c0-0.98,0.49-1.89,1.47-2.72c0.98-0.83,2.2-1.54,3.67-2.13c1.47-0.59,3.13-1.05,4.99-1.4c1.86-0.34,3.67-0.51,5.43-0.51
				c2.45,0,4.55,0.39,6.31,1.17c1.76,0.78,2.64,2.06,2.64,3.82c0,0.39-0.1,0.98-0.29,1.76l-9.98,31.86c2.74-4.5,5.87-9.06,9.4-13.66
				s7-8.76,10.42-12.48c3.43-3.72,6.71-6.75,9.84-9.1c3.13-2.35,5.73-3.52,7.78-3.52c2.25,0,3.84,0.83,4.77,2.5
				c0.93,1.66,1.4,3.67,1.4,6.02c0,3.13-0.44,5.95-1.32,8.44c-0.88,2.5-1.93,4.62-3.16,6.39c-1.22,1.76-2.45,3.13-3.67,4.11
				c-1.22,0.98-2.18,1.47-2.86,1.47c-1.57,0-2.89-0.32-3.96-0.95c-1.08-0.64-1.61-1.79-1.61-3.45c0-0.98,0.2-2.06,0.59-3.23
				c-3.13,2.94-6.53,6.61-10.2,11.01c-3.67,4.41-7.19,8.86-10.57,13.36c-3.38,4.5-6.41,8.74-9.1,12.7
				c-2.69,3.96-4.67,6.88-5.95,8.74c-1.08,1.66-1.96,3.23-2.64,4.7c-0.69,1.47-1.22,2.74-1.62,3.82c-0.39,1.27-0.73,2.5-1.03,3.67
				c-0.1,0.78-1.15,1.44-3.16,1.98c-2.01,0.54-4.14,0.81-6.39,0.81c-1.66,0-3.16-0.2-4.48-0.59c-1.32-0.39-1.98-0.98-1.98-1.76
				c0-0.1,0.02-0.17,0.07-0.22c0.05-0.05,0.07-0.12,0.07-0.22l21.29-70.04C297.94,78.04,297.69,78.09,297.4,78.09z"/>
			<path class="etast6" d="M392.84,141.53c0.2,0,0.42-0.02,0.66-0.07c0.24-0.05,0.56-0.07,0.96-0.07c0.88,0,1.74,0.15,2.57,0.44
				c0.83,0.29,1.25,0.98,1.25,2.06c0,0.98-0.49,1.88-1.47,2.72c-0.98,0.83-2.2,1.54-3.67,2.13c-1.47,0.59-3.13,1.05-4.99,1.4
				c-1.86,0.34-3.67,0.51-5.43,0.51c-2.45,0-4.55-0.39-6.31-1.17s-2.64-2.06-2.64-3.82c0-0.39,0.1-0.98,0.29-1.76l3.08-10.72
				c-2.06,2.64-4.26,5.06-6.61,7.27c-2.35,2.2-4.7,4.06-7.05,5.58c-2.35,1.52-4.65,2.69-6.9,3.52c-2.25,0.83-4.31,1.25-6.17,1.25
				c-0.88,0-2.01-0.12-3.38-0.37c-1.37-0.24-2.72-0.91-4.04-1.98c-1.32-1.08-2.45-2.69-3.38-4.85c-0.93-2.15-1.39-5.09-1.39-8.81
				c0-8.12,1.52-16.08,4.55-23.86c3.03-7.78,7.27-14.73,12.7-20.85c5.43-6.12,11.89-11.04,19.38-14.76
				c7.49-3.72,15.64-5.58,24.45-5.58c0.98,0,2.15-0.03,3.52-0.07c1.37-0.05,2.69,0.07,3.96,0.37c1.27,0.29,2.35,0.83,3.23,1.61
				c0.88,0.78,1.32,2.01,1.32,3.67c0,0.49-0.05,1-0.15,1.54s-0.24,1.1-0.44,1.69l-18.65,62.99H392.84z M391.66,83.97
				c0-0.98-0.27-1.62-0.81-1.91s-1.05-0.44-1.54-0.44c-3.52,0-6.95,1.32-10.28,3.96s-6.36,5.82-9.1,9.54
				c-2.74,3.72-5.09,7.61-7.05,11.67c-1.96,4.06-3.38,7.46-4.26,10.2c-0.49,1.66-0.95,3.6-1.39,5.8c-0.44,2.2-0.66,4.14-0.66,5.8
				c0,1.17,0.15,2.13,0.44,2.86c0.29,0.73,0.78,1.1,1.47,1.1c2.15,0,4.5-0.86,7.05-2.57c2.55-1.71,5.07-4.04,7.56-6.97
				c2.5-2.94,4.94-6.34,7.34-10.2c2.4-3.87,4.53-7.91,6.39-12.11l4.41-14.39C391.52,85.44,391.66,84.65,391.66,83.97z"/>
			<path class="etast6" d="M474.33,99.83c0.29,0,0.44,0.29,0.44,0.88c0,1.27-0.37,3.4-1.1,6.39c-0.73,2.99-1.61,6.07-2.64,9.25
				c-1.03,3.18-2.1,6.07-3.23,8.66c-1.13,2.59-2.08,4.18-2.86,4.77c-3.82,4.01-7.93,7.63-12.33,10.87c-3.72,2.74-8,5.21-12.85,7.42
				c-4.85,2.2-9.81,3.3-14.9,3.3c-0.29,0-1.17-0.2-2.64-0.59c-1.47-0.39-3.01-1.27-4.63-2.64c-1.61-1.37-3.08-3.4-4.4-6.09
				c-1.32-2.69-1.98-6.39-1.98-11.09c0-2.64,0.27-5.63,0.81-8.96c0.54-3.33,1.44-7.05,2.72-11.16c2.15-7.24,5.16-13.61,9.03-19.09
				c3.87-5.48,8.17-10.03,12.92-13.66c4.75-3.62,9.74-6.34,14.98-8.15c5.24-1.81,10.3-2.72,15.2-2.72c1.47,0,2.59,0.12,3.38,0.37
				c0.78,0.24,1.17,1.1,1.17,2.57c0,0.88-0.17,1.84-0.51,2.86c-0.34,1.03-0.76,2.01-1.25,2.94c-0.49,0.93-1.05,1.69-1.69,2.28
				c-0.64,0.59-1.3,0.88-1.98,0.88h-1.76c-3.82,0-7.49,1.22-11.01,3.67c-3.52,2.45-6.71,5.38-9.54,8.81
				c-2.84,3.43-5.24,6.95-7.19,10.57c-1.96,3.62-3.28,6.61-3.96,8.96c-0.49,1.37-0.96,3.33-1.4,5.87c-0.44,2.54-0.66,5.04-0.66,7.49
				c0,2.35,0.34,4.36,1.03,6.02c0.68,1.66,1.91,2.5,3.67,2.5c2.94,0,6-0.81,9.18-2.42c3.18-1.61,6.39-3.84,9.62-6.68
				c3.23-2.84,6.49-6.22,9.76-10.13c3.28-3.92,6.48-8.22,9.62-12.92C473.69,100.17,474.04,99.83,474.33,99.83z"/>
			<path class="etast6" d="M529.98,99.68c0.2,0,0.29,0.29,0.29,0.88c0,1.17-0.37,3.25-1.1,6.24c-0.73,2.99-1.62,6.09-2.64,9.32
				c-1.03,3.23-2.1,6.17-3.23,8.81c-1.13,2.64-2.08,4.26-2.86,4.85c-4.31,4.01-8.81,7.63-13.51,10.87
				c-4.11,2.74-8.66,5.21-13.66,7.42c-4.99,2.2-10.03,3.3-15.12,3.3c-0.29,0-1.2-0.1-2.72-0.29c-1.52-0.2-3.11-0.91-4.77-2.13
				c-1.66-1.22-3.16-3.11-4.48-5.65c-1.32-2.54-1.98-6.17-1.98-10.87c0-2.74,0.29-5.87,0.88-9.4c0.59-3.52,1.57-7.59,2.94-12.19
				c2.94-9.69,6.46-17.4,10.57-23.13c4.11-5.73,8.22-10.06,12.33-12.99c4.11-2.94,7.95-4.85,11.53-5.73
				c3.57-0.88,6.29-1.32,8.15-1.32c3.43,0,5.95,1.1,7.56,3.3c1.62,2.2,2.42,5.02,2.42,8.44c0,3.52-0.81,7.46-2.42,11.82
				c-1.61,4.36-3.89,8.52-6.83,12.48c-2.94,3.96-6.44,7.44-10.5,10.43c-4.06,2.99-8.59,4.97-13.58,5.95
				c-1.37,0.29-2.42,0.73-3.16,1.32c-0.73,0.59-1.1,2.05-1.1,4.4c0,1.96,0.39,3.65,1.17,5.07c0.78,1.42,2.2,2.13,4.26,2.13
				c2.94,0,6.14-0.78,9.62-2.35c3.48-1.57,7.02-3.77,10.65-6.61c3.62-2.84,7.17-6.22,10.64-10.13c3.48-3.92,6.68-8.27,9.62-13.07
				C529.44,100.07,529.78,99.68,529.98,99.68z M500.61,82.72c-1.47,1.22-2.89,2.84-4.26,4.85c-1.37,2.01-2.67,4.28-3.89,6.83
				c-1.22,2.54-2.28,5.14-3.16,7.78c-0.2,0.59-0.34,1.08-0.44,1.47c-0.1,0.39-0.15,0.73-0.15,1.03c0,0.39,0.15,0.59,0.44,0.59
				c0.2,0,0.78-0.24,1.76-0.73c2.15-1.17,4.21-2.72,6.17-4.62c1.96-1.91,3.67-3.89,5.14-5.95c1.47-2.05,2.62-4.04,3.45-5.95
				c0.83-1.91,1.25-3.5,1.25-4.77c0-1.57-0.68-2.35-2.06-2.35C503.5,80.88,502.08,81.5,500.61,82.72z"/>
			<path class="etast6" d="M610.88,74.79c1.47-0.44,2.89-0.9,4.26-1.39c1.57-0.59,3.08-1.27,4.55-2.06c0.98,0,1.47,0.54,1.47,1.61
				c0,1.08-0.42,2.52-1.25,4.33c-0.83,1.81-1.86,3.57-3.08,5.29c-1.22,1.71-2.59,3.21-4.11,4.48c-1.52,1.27-3.01,1.91-4.48,1.91
				c-1.37,0.2-2.67,0.34-3.89,0.44c-1.22,0.1-2.37,0.15-3.45,0.15c-3.52,0-7.02-0.64-10.5-1.91c-3.48-1.27-6.58-3.01-9.32-5.21
				c-2.74-2.2-4.97-4.75-6.68-7.64c-1.71-2.89-2.57-5.95-2.57-9.18c0-2.25,0.39-4.36,1.17-6.31c1.47-3.72,3.67-6.95,6.61-9.69
				c2.94-2.74,6.27-5.04,9.99-6.9c3.72-1.86,7.71-3.38,11.97-4.55c4.26-1.17,8.39-2.08,12.41-2.72c4.01-0.64,7.78-1.05,11.31-1.25
				c3.52-0.2,6.46-0.29,8.81-0.29c3.72,0,7.05,0.05,9.98,0.15c2.94,0.1,5.68,0.17,8.22,0.22c2.55,0.05,4.97,0.12,7.27,0.22
				c2.3,0.1,4.67,0.15,7.12,0.15c3.72,0,6.9-0.68,9.54-2.06c2.64-1.37,4.5-3.77,5.58-7.19c0.29-0.98,0.83-1.66,1.62-2.06
				c0.78-0.39,1.71-0.59,2.79-0.59c0.98,0,2.06,0.17,3.23,0.51c1.17,0.34,2.23,0.76,3.16,1.25s1.71,0.98,2.35,1.47
				c0.64,0.49,0.95,0.93,0.95,1.32v0.29c-2.64,5.29-6.09,9.52-10.35,12.7c-4.26,3.18-8.69,5.9-13.29,8.15
				c-0.59,0.29-1.25,0.59-1.98,0.88c-0.73,0.29-1.79,0.64-3.16,1.03c-1.37,0.39-3.18,0.81-5.43,1.25c-2.25,0.44-5.29,0.95-9.1,1.54
				c-1.37,0.2-2.42,0.51-3.16,0.95c-0.73,0.44-1.32,0.95-1.76,1.54c-0.44,0.59-0.76,1.25-0.96,1.98c-0.2,0.73-0.39,1.49-0.59,2.28
				l-25.4,83.84c-0.78,2.45-2.2,4.18-4.26,5.21c-2.06,1.03-4.31,1.54-6.75,1.54c-3.03,0-5.82-0.64-8.37-1.91
				c-2.55-1.27-3.82-2.89-3.82-4.85c0-1.08,0.44-1.76,1.32-2.06c0.88-0.29,1.76-0.44,2.64-0.44c0.29,0,0.61,0.02,0.95,0.07
				c0.34,0.05,0.61,0.07,0.81,0.07h0.73l25.11-81.35c0.29-0.98,0.44-1.96,0.44-2.94c0-1.37-0.44-2.42-1.32-3.16
				c-0.88-0.73-2.03-1.27-3.45-1.62c-1.42-0.34-3.06-0.54-4.92-0.59c-1.86-0.05-3.72-0.07-5.58-0.07c-3.23,0-6.51,0.22-9.84,0.66
				c-3.33,0.44-6.34,1.17-9.03,2.2c-2.69,1.03-4.89,2.42-6.61,4.18c-1.71,1.76-2.57,3.97-2.57,6.61c0,1.86,0.61,3.43,1.84,4.7
				s2.79,2.33,4.7,3.16s4.09,1.42,6.53,1.76c2.45,0.34,4.89,0.51,7.34,0.51C607.99,75.45,609.41,75.23,610.88,74.79z"/>
			<path class="etast6" d="M729.81,99.24c0.2,0,0.29,0.24,0.29,0.73c0,1.08-0.34,3.11-1.03,6.09c-0.68,2.99-1.54,6.12-2.57,9.4
				s-2.1,6.26-3.23,8.96c-1.13,2.69-2.08,4.33-2.86,4.92c-1.27,1.66-3.25,3.72-5.95,6.17c-2.69,2.45-5.75,4.8-9.18,7.05
				c-3.43,2.25-7.05,4.18-10.87,5.8c-3.82,1.61-7.49,2.42-11.01,2.42c-0.98,0-1.66-0.47-2.06-1.4s-0.59-2.18-0.59-3.74
				c0-3.92,0.49-7.93,1.47-12.04c0.98-4.11,2.2-8.15,3.67-12.11c1.47-3.96,3.03-7.78,4.7-11.45c1.66-3.67,3.18-7.07,4.55-10.2
				c-2.94,2.55-5.87,5.36-8.81,8.44c-2.94,3.08-5.8,6.29-8.59,9.62c-2.79,3.33-5.48,6.71-8.08,10.13c-2.59,3.43-5.02,6.66-7.27,9.69
				c-1.08,1.57-1.93,2.94-2.57,4.11c-0.64,1.17-1.1,2.15-1.39,2.94c-0.39,0.98-0.59,1.76-0.59,2.35c-0.29,1.17-1.42,2.08-3.38,2.72
				s-4.01,0.96-6.17,0.96c-1.76,0-3.28-0.22-4.55-0.66c-1.27-0.44-1.91-1.2-1.91-2.28c0-0.29,0.05-0.54,0.15-0.73L676.51,33.9
				c0.29-1.08,1.27-1.86,2.94-2.35c1.66-0.49,3.47-0.73,5.43-0.73c2.25,0,4.31,0.27,6.17,0.81c1.86,0.54,2.79,1.2,2.79,1.98v0.29
				l-20.7,66.08l-3.82,10.43c0.39-0.59,0.88-1.3,1.47-2.13c0.59-0.83,1.2-1.74,1.84-2.72c0.64-0.98,1.25-1.91,1.84-2.79
				c0.59-0.88,1.13-1.62,1.62-2.2c2.94-3.62,6.36-7.34,10.28-11.16c3.92-3.82,7.76-7.24,11.53-10.28c3.77-3.04,7.19-5.53,10.28-7.49
				c3.08-1.96,5.26-2.94,6.53-2.94c0.78,0,1.47,0.39,2.05,1.17c0.59,0.78,0.88,1.76,0.88,2.94c0,0.88-0.24,1.91-0.73,3.08
				c-0.29,0.59-0.91,2.1-1.84,4.55c-0.93,2.45-2.03,5.41-3.3,8.88c-1.27,3.47-2.62,7.22-4.04,11.23c-1.42,4.01-2.72,7.88-3.89,11.6
				c-1.17,3.72-2.15,7.07-2.94,10.06c-0.78,2.99-1.17,5.16-1.17,6.53c0,0.98,0.24,1.47,0.73,1.47c1.17,0,2.94-0.91,5.29-2.72
				c2.35-1.81,4.92-4.14,7.71-6.97c2.79-2.84,5.58-6.02,8.37-9.54c2.79-3.52,5.16-7.05,7.12-10.57
				C729.42,99.63,729.71,99.24,729.81,99.24z"/>
			<path class="etast6" d="M784.58,99.68c0.2,0,0.29,0.29,0.29,0.88c0,1.17-0.37,3.25-1.1,6.24c-0.73,2.99-1.62,6.09-2.64,9.32
				c-1.03,3.23-2.1,6.17-3.23,8.81c-1.13,2.64-2.08,4.26-2.86,4.85c-4.31,4.01-8.81,7.63-13.51,10.87
				c-4.11,2.74-8.66,5.21-13.66,7.42c-4.99,2.2-10.03,3.3-15.12,3.3c-0.29,0-1.2-0.1-2.72-0.29c-1.52-0.2-3.11-0.91-4.77-2.13
				c-1.66-1.22-3.16-3.11-4.48-5.65c-1.32-2.54-1.98-6.17-1.98-10.87c0-2.74,0.29-5.87,0.88-9.4c0.59-3.52,1.57-7.59,2.94-12.19
				c2.94-9.69,6.46-17.4,10.57-23.13c4.11-5.73,8.22-10.06,12.33-12.99c4.11-2.94,7.95-4.85,11.53-5.73
				c3.57-0.88,6.29-1.32,8.15-1.32c3.43,0,5.95,1.1,7.56,3.3c1.62,2.2,2.42,5.02,2.42,8.44c0,3.52-0.81,7.46-2.42,11.82
				c-1.61,4.36-3.89,8.52-6.83,12.48c-2.94,3.96-6.44,7.44-10.5,10.43c-4.06,2.99-8.59,4.97-13.58,5.95
				c-1.37,0.29-2.42,0.73-3.16,1.32c-0.73,0.59-1.1,2.05-1.1,4.4c0,1.96,0.39,3.65,1.17,5.07c0.78,1.42,2.2,2.13,4.26,2.13
				c2.94,0,6.14-0.78,9.62-2.35c3.48-1.57,7.02-3.77,10.65-6.61c3.62-2.84,7.17-6.22,10.64-10.13c3.48-3.92,6.68-8.27,9.62-13.07
				C784.04,100.07,784.38,99.68,784.58,99.68z M755.21,82.72c-1.47,1.22-2.89,2.84-4.26,4.85c-1.37,2.01-2.67,4.28-3.89,6.83
				c-1.22,2.54-2.28,5.14-3.16,7.78c-0.2,0.59-0.34,1.08-0.44,1.47c-0.1,0.39-0.15,0.73-0.15,1.03c0,0.39,0.15,0.59,0.44,0.59
				c0.2,0,0.78-0.24,1.76-0.73c2.15-1.17,4.21-2.72,6.17-4.62c1.96-1.91,3.67-3.89,5.14-5.95c1.47-2.05,2.62-4.04,3.45-5.95
				c0.83-1.91,1.25-3.5,1.25-4.77c0-1.57-0.68-2.35-2.06-2.35C758.1,80.88,756.68,81.5,755.21,82.72z"/>
			<path class="etast6" d="M139.76,291.88c0.29-0.68,0.44-1.32,0.44-1.91c0-1.17-0.78-1.76-2.35-1.76h-17.77
				c-1.37,0-2.06-0.73-2.06-2.2c0-1.27,0.49-2.86,1.47-4.77c0.98-1.91,2.2-3.77,3.67-5.58c1.47-1.81,3.06-3.38,4.77-4.7
				c1.71-1.32,3.3-1.98,4.77-1.98h16.3c0.29,0.1,0.73,0.15,1.32,0.15c1.96,0,3.5-0.46,4.63-1.39c1.13-0.93,1.98-1.84,2.57-2.72
				l23.64-35.68l-10.42-0.15c-1.66,0-4.33-0.2-8-0.59s-7.71-0.59-12.11-0.59c-2.84,0-5.75,0.2-8.74,0.59
				c-2.99,0.39-5.7,1.08-8.15,2.06c-2.45,0.98-4.45,2.35-6.02,4.11c-1.57,1.76-2.35,4.01-2.35,6.75c0,1.86,0.61,3.43,1.84,4.7
				c1.22,1.27,2.79,2.33,4.7,3.16c1.91,0.83,4.09,1.42,6.53,1.76c2.45,0.34,4.9,0.51,7.34,0.51c1.37,0,2.79-0.22,4.26-0.66
				c1.47-0.44,2.89-0.9,4.26-1.39c1.57-0.59,3.08-1.27,4.55-2.06c0.98,0,1.47,0.54,1.47,1.61c0,1.08-0.42,2.52-1.25,4.33
				c-0.83,1.81-1.86,3.57-3.08,5.29c-1.22,1.71-2.59,3.21-4.11,4.48c-1.52,1.27-3.01,1.91-4.48,1.91c-1.37,0.2-2.67,0.34-3.89,0.44
				c-1.22,0.1-2.37,0.15-3.45,0.15c-3.52,0-7.02-0.64-10.5-1.91c-3.47-1.27-6.58-3.01-9.32-5.21s-4.97-4.75-6.68-7.64
				c-1.71-2.89-2.57-5.95-2.57-9.18c0-2.25,0.39-4.36,1.17-6.31c1.47-3.72,3.52-6.95,6.17-9.69c2.64-2.74,5.63-5.04,8.96-6.9
				c3.33-1.86,6.83-3.38,10.5-4.55c3.67-1.17,7.32-2.08,10.94-2.72c3.62-0.64,7.05-1.05,10.28-1.25c3.23-0.2,6.02-0.29,8.37-0.29
				h26.43c0.98,0,2.4-0.1,4.26-0.29c1.86-0.2,3.84-0.44,5.95-0.73c2.1-0.29,4.23-0.54,6.39-0.73c2.15-0.2,4.11-0.29,5.87-0.29
				c1.57,0,2.84,0.15,3.82,0.44c0.98,0.29,1.47,0.73,1.47,1.32v0.29l-32.3,107.63h0.73c0.2,0,0.42-0.02,0.66-0.07
				c0.24-0.05,0.56-0.07,0.95-0.07c0.88,0,1.74,0.15,2.57,0.44c0.83,0.29,1.25,0.98,1.25,2.06c0,0.98-0.49,1.88-1.47,2.72
				c-0.98,0.83-2.2,1.54-3.67,2.13c-1.47,0.59-3.13,1.05-4.99,1.4c-1.86,0.34-3.67,0.51-5.43,0.51c-2.45,0-4.55-0.39-6.31-1.17
				c-1.76-0.78-2.64-2.06-2.64-3.82c0-0.39,0.1-0.98,0.29-1.76l8.22-27.31c0.1-0.29,0.15-0.69,0.15-1.17c0-1.08-0.32-1.91-0.95-2.5
				c-0.64-0.59-1.49-0.88-2.57-0.88h-10.57c-1.96,0-3.35,0.42-4.18,1.25c-0.83,0.83-1.69,1.93-2.57,3.3l-12.77,19.82
				c-5.29,7.93-10.87,14.51-16.74,19.75c-5.87,5.24-11.92,9.37-18.13,12.41s-12.55,5.16-19.02,6.39
				c-6.46,1.22-12.92,1.84-19.38,1.84c-4.4,0-8.76-0.22-13.07-0.66c-4.31-0.44-8.66-1-13.07-1.69c-0.98-0.1-1.47-0.73-1.47-1.91
				s0.44-2.64,1.32-4.41c0.88-1.76,1.96-3.47,3.23-5.14c1.27-1.66,2.62-3.08,4.04-4.26c1.42-1.17,2.67-1.76,3.74-1.76
				c0.2,0,0.32,0.02,0.37,0.07c0.05,0.05,0.17,0.07,0.37,0.07c2.84,0.78,5.97,1.44,9.4,1.98c3.43,0.54,7,0.81,10.72,0.81
				c4.21,0,8.61-0.39,13.21-1.17c4.6-0.78,9.06-2.08,13.36-3.89c4.31-1.81,8.37-4.23,12.19-7.27c3.82-3.03,7.15-6.8,9.98-11.31
				l11.75-18.79C139.13,293.15,139.47,292.57,139.76,291.88z M175.44,267.95c0,0.69,0.78,1.03,2.35,1.03h4.99
				c0.98,0,1.76-0.2,2.35-0.59c0.59-0.39,1.13-0.83,1.62-1.32c0.39-0.59,0.78-1.27,1.17-2.06l6.61-20.85
				c0.29-0.88,0.83-2.42,1.62-4.62c0.78-2.2,1.62-4.53,2.5-6.98c0.88-2.45,1.71-4.75,2.5-6.9c0.78-2.15,1.32-3.62,1.62-4.4
				c-0.29,0.59-1.05,1.98-2.28,4.18c-1.22,2.2-2.52,4.58-3.89,7.12c-1.37,2.55-2.69,4.94-3.96,7.19c-1.27,2.25-2.15,3.77-2.64,4.55
				l-13.66,21.44C175.74,266.62,175.44,267.36,175.44,267.95z"/>
			<path class="etast6" d="M240.78,314.93c-1.86,2.15-3.94,4.16-6.24,6.02c-2.3,1.86-4.72,3.43-7.27,4.7
				c-2.55,1.27-5.19,1.91-7.93,1.91c-0.29,0-1.13-0.1-2.5-0.29c-1.37-0.2-2.79-0.86-4.26-1.98c-1.47-1.13-2.81-2.91-4.04-5.36
				c-1.22-2.45-1.84-5.87-1.84-10.28c0-4.99,0.64-10.08,1.91-15.27c1.27-5.19,3.08-10.23,5.43-15.12c2.35-4.89,5.19-9.5,8.52-13.8
				s7-8.08,11.01-11.31c4.01-3.23,8.37-5.78,13.07-7.64s9.64-2.79,14.83-2.79h0.88c0.68,0,1.37-0.17,2.06-0.51
				c0.68-0.34,1.27-1.35,1.76-3.01l8.96-30.1c0.39-1.27,1.59-2.2,3.6-2.79c2.01-0.59,4.14-0.88,6.39-0.88c1.96,0,3.7,0.24,5.21,0.73
				c1.52,0.49,2.28,1.27,2.28,2.35v0.59l-32.6,107.78h0.73c0.2,0,0.42-0.02,0.66-0.07c0.24-0.05,0.56-0.07,0.95-0.07
				c0.88,0,1.74,0.15,2.57,0.44c0.83,0.29,1.25,0.98,1.25,2.06c0,0.98-0.49,1.88-1.47,2.72c-0.98,0.83-2.2,1.54-3.67,2.13
				c-1.47,0.59-3.13,1.05-4.99,1.4c-1.86,0.34-3.67,0.51-5.43,0.51c-2.45,0-4.55-0.39-6.31-1.17c-1.76-0.78-2.64-2.06-2.64-3.82
				c0-0.39,0.1-0.98,0.29-1.76l3.52-11.16C244.21,310.82,242.64,312.78,240.78,314.93z M260.6,258.18c0.1-0.34,0.15-0.71,0.15-1.1
				c0-1.17-0.64-1.76-1.91-1.76c-3.62,0-7.15,1.3-10.57,3.89c-3.43,2.59-6.56,5.75-9.4,9.47c-2.84,3.72-5.29,7.61-7.34,11.67
				c-2.06,4.06-3.52,7.56-4.41,10.5c-0.29,0.88-0.59,1.93-0.88,3.16c-0.29,1.22-0.56,2.5-0.81,3.82c-0.24,1.32-0.46,2.64-0.66,3.97
				s-0.29,2.52-0.29,3.6c0,2.55,0.54,3.82,1.61,3.82c2.06,0,4.38-1.3,6.97-3.89c2.59-2.59,5.24-5.73,7.93-9.4
				c2.69-3.67,5.31-7.56,7.86-11.67c2.55-4.11,4.8-7.68,6.75-10.72l4.7-14.24C260.41,258.89,260.5,258.52,260.6,258.18z"/>
			<path class="etast6" d="M340.7,278.67c-1.13,3.13-2.74,6.73-4.85,10.79c-2.1,4.06-4.67,8.3-7.71,12.7
				c-3.03,4.4-6.58,8.47-10.65,12.19c-4.06,3.72-8.64,6.78-13.73,9.18c-5.09,2.4-10.72,3.6-16.89,3.6c-2.94,0-5.24-1.32-6.9-3.97
				c-1.66-2.64-2.5-6.17-2.5-10.57c0-1.66,0.12-3.4,0.37-5.21c0.24-1.81,0.66-3.7,1.25-5.65c0.2-0.59,0.54-1.74,1.03-3.45
				c0.49-1.71,1.08-3.74,1.76-6.09c0.69-2.35,1.44-4.92,2.28-7.71s1.69-5.6,2.57-8.44c1.96-6.66,4.16-13.95,6.61-21.88
				c-0.2,0.1-0.44,0.15-0.73,0.15c-0.29,0.1-0.83,0.15-1.62,0.15c-0.88,0-1.74-0.17-2.57-0.51c-0.83-0.34-1.25-1.05-1.25-2.13
				c0-0.98,0.49-1.89,1.47-2.72c0.98-0.83,2.2-1.54,3.67-2.13c1.47-0.59,3.13-1.05,4.99-1.4c1.86-0.34,3.67-0.51,5.43-0.51
				c2.45,0,4.55,0.39,6.31,1.17s2.64,2.06,2.64,3.82c0,0.39-0.1,0.98-0.29,1.76c-2.35,7.44-4.5,14.24-6.46,20.41
				c-0.88,2.64-1.74,5.29-2.57,7.93s-1.59,5.11-2.28,7.42c-0.68,2.3-1.3,4.31-1.84,6.02c-0.54,1.71-0.95,2.91-1.25,3.6
				c-0.78,2.35-1.35,4.28-1.69,5.8c-0.34,1.52-0.51,2.72-0.51,3.6c0,1.08,0.17,1.79,0.51,2.13c0.34,0.34,0.76,0.51,1.25,0.51
				c2.25,0,4.65-0.78,7.19-2.35c2.55-1.57,5.04-3.7,7.49-6.39c2.45-2.69,4.8-5.82,7.05-9.4c2.25-3.57,4.23-7.37,5.95-11.38
				c1.71-4.01,3.08-8.12,4.11-12.33c1.03-4.21,1.54-8.32,1.54-12.33c0-1.27-0.07-2.5-0.22-3.67c-0.15-1.17-0.32-2.35-0.51-3.52
				c0-0.88,0.93-1.57,2.79-2.05c1.86-0.49,3.92-0.73,6.17-0.73c2.06,0,3.94,0.22,5.65,0.66c1.71,0.44,2.57,1.05,2.57,1.84
				c0,1.27-0.24,2.64-0.73,4.11c-0.49,1.47-0.73,2.98-0.73,4.55c0,1.76,0.42,3.3,1.25,4.63c0.83,1.32,2.37,1.98,4.63,1.98
				c0.98,0,2.33-0.05,4.04-0.15s3.5-0.64,5.36-1.61c0.2-0.1,0.44-0.15,0.73-0.15c0.68,0,1.03,0.69,1.03,2.06
				c0,4.11-1.27,7.46-3.82,10.06s-5.73,3.89-9.54,3.89c-1.47,0-2.74-0.42-3.82-1.25c-1.08-0.83-1.76-1.93-2.06-3.3
				C342.48,273.43,341.82,275.53,340.7,278.67z"/>
			<path class="etast6" d="M411.98,275.88c0.2,0,0.29,0.29,0.29,0.88c0,1.17-0.37,3.25-1.1,6.24c-0.73,2.99-1.62,6.09-2.64,9.32
				c-1.03,3.23-2.1,6.17-3.23,8.81c-1.13,2.64-2.08,4.26-2.86,4.85c-4.31,4.01-8.81,7.63-13.51,10.87
				c-4.11,2.74-8.66,5.21-13.66,7.42c-4.99,2.2-10.03,3.3-15.12,3.3c-0.29,0-1.2-0.1-2.72-0.29c-1.52-0.2-3.11-0.91-4.77-2.13
				c-1.66-1.22-3.16-3.11-4.48-5.65c-1.32-2.54-1.98-6.17-1.98-10.87c0-2.74,0.29-5.87,0.88-9.4c0.59-3.52,1.57-7.59,2.94-12.19
				c2.94-9.69,6.46-17.4,10.57-23.13c4.11-5.73,8.22-10.06,12.33-12.99c4.11-2.94,7.95-4.85,11.53-5.73
				c3.57-0.88,6.29-1.32,8.15-1.32c3.43,0,5.95,1.1,7.56,3.3c1.62,2.2,2.42,5.02,2.42,8.44c0,3.52-0.81,7.46-2.42,11.82
				c-1.61,4.36-3.89,8.52-6.83,12.48c-2.94,3.96-6.44,7.44-10.5,10.43c-4.06,2.99-8.59,4.97-13.58,5.95
				c-1.37,0.29-2.42,0.73-3.16,1.32c-0.73,0.59-1.1,2.05-1.1,4.4c0,1.96,0.39,3.65,1.17,5.07c0.78,1.42,2.2,2.13,4.26,2.13
				c2.94,0,6.14-0.78,9.62-2.35s7.02-3.77,10.65-6.61c3.62-2.84,7.17-6.22,10.64-10.13c3.48-3.92,6.68-8.27,9.62-13.07
				C411.44,276.27,411.79,275.88,411.98,275.88z M382.62,258.92c-1.47,1.22-2.89,2.84-4.26,4.85c-1.37,2.01-2.67,4.28-3.89,6.83
				c-1.22,2.54-2.28,5.14-3.16,7.78c-0.2,0.59-0.34,1.08-0.44,1.47c-0.1,0.39-0.15,0.73-0.15,1.03c0,0.39,0.15,0.59,0.44,0.59
				c0.2,0,0.78-0.24,1.76-0.73c2.15-1.17,4.21-2.72,6.17-4.62c1.96-1.91,3.67-3.89,5.14-5.95c1.47-2.05,2.62-4.04,3.45-5.95
				c0.83-1.91,1.25-3.5,1.25-4.77c0-1.57-0.68-2.35-2.06-2.35C385.5,257.08,384.08,257.69,382.62,258.92z"/>
			<path class="etast6" d="M468.73,311.7c-2.69,2.45-5.73,4.8-9.1,7.05c-3.38,2.25-6.97,4.18-10.79,5.8
				c-3.82,1.61-7.49,2.42-11.01,2.42c-1.76,0-2.64-1.66-2.64-4.99c0-1.76,0.22-3.84,0.66-6.24c0.44-2.4,1-4.87,1.69-7.42
				c0.68-2.55,1.37-5.04,2.06-7.49c0.68-2.45,1.32-4.65,1.91-6.61c0.39-1.37,0.98-2.89,1.76-4.55c0.78-1.66,1.59-3.25,2.42-4.77
				c0.83-1.52,1.57-2.81,2.2-3.89c0.64-1.08,1.05-1.76,1.25-2.06c-2.54,2.94-5.21,5.87-8,8.81c-2.79,2.94-5.56,5.85-8.3,8.74
				s-5.36,5.75-7.86,8.59c-2.5,2.84-4.72,5.63-6.68,8.37c-1.08,1.57-1.93,2.99-2.57,4.26c-0.64,1.27-1.1,2.4-1.4,3.38
				c-0.39,1.08-0.59,2.1-0.59,3.08c-0.1,0.88-1.08,1.54-2.94,1.98c-1.86,0.44-3.82,0.66-5.87,0.66c-1.86,0-3.52-0.17-4.99-0.51
				c-1.47-0.34-2.2-0.91-2.2-1.69c0-0.1,0.02-0.17,0.07-0.22c0.05-0.05,0.07-0.12,0.07-0.22l21-70.04c-0.2,0.1-0.44,0.15-0.73,0.15
				c-0.29,0.1-0.83,0.15-1.62,0.15c-0.88,0-1.74-0.17-2.57-0.51c-0.83-0.34-1.25-1.05-1.25-2.13c0-0.98,0.49-1.89,1.47-2.72
				c0.98-0.83,2.2-1.54,3.67-2.13c1.47-0.59,3.13-1.05,4.99-1.4c1.86-0.34,3.67-0.51,5.43-0.51c2.45,0,4.55,0.39,6.31,1.17
				c1.76,0.78,2.64,2.06,2.64,3.82c0,0.39-0.1,0.98-0.29,1.76l-7.34,24.37c-0.2,0.69-0.56,1.66-1.1,2.94s-1.05,2.59-1.54,3.96
				c-0.59,1.57-1.27,3.23-2.06,4.99c1.76-2.45,3.92-5.21,6.46-8.3c2.54-3.08,5.24-6.24,8.08-9.47c2.84-3.23,5.75-6.36,8.74-9.4
				c2.99-3.03,5.82-5.73,8.52-8.08c2.69-2.35,5.11-4.26,7.27-5.73c2.15-1.47,3.87-2.2,5.14-2.2c0.78,0,1.47,0.39,2.06,1.17
				c0.59,0.78,0.88,1.76,0.88,2.94c0,0.88-0.24,1.91-0.73,3.08c-0.29,0.59-0.91,2.1-1.84,4.55c-0.93,2.45-2.03,5.41-3.3,8.88
				c-1.27,3.47-2.62,7.22-4.04,11.23c-1.42,4.01-2.72,7.88-3.89,11.6c-1.17,3.72-2.15,7.07-2.94,10.06
				c-0.78,2.99-1.17,5.16-1.17,6.53c0,0.98,0.24,1.47,0.73,1.47c1.17,0,3.06-1.03,5.65-3.08c2.59-2.06,5.36-4.58,8.3-7.56
				c2.94-2.99,5.78-6.14,8.52-9.47c2.74-3.33,4.85-6.31,6.31-8.96c0.39-0.88,0.69-1.32,0.88-1.32c0.1,0,0.15,0.15,0.15,0.44
				c0,0.59-0.17,1.61-0.51,3.08c-0.34,1.47-0.81,3.18-1.39,5.14c-0.59,1.96-1.22,4.04-1.91,6.24c-0.68,2.2-1.4,4.28-2.13,6.24
				c-0.73,1.96-1.44,3.7-2.13,5.21c-0.68,1.52-1.27,2.57-1.76,3.16C473.45,307.2,471.42,309.26,468.73,311.7z"/>
			<path class="etast6" d="M488.8,317.87c0.2,0,0.42-0.02,0.66-0.07c0.24-0.05,0.56-0.07,0.96-0.07c0.88,0,1.74,0.15,2.57,0.44
				c0.83,0.29,1.25,0.98,1.25,2.06c0,0.98-0.49,1.88-1.47,2.72c-0.98,0.83-2.2,1.54-3.67,2.13c-1.47,0.59-3.13,1.05-4.99,1.4
				c-1.86,0.34-3.67,0.51-5.43,0.51c-2.45,0-4.55-0.39-6.31-1.17c-1.76-0.78-2.64-2.06-2.64-3.82c0-0.39,0.1-0.98,0.29-1.76
				l16.01-53.01c0.1-0.39,0.22-0.81,0.37-1.25c0.15-0.44,0.22-0.91,0.22-1.39c0-0.49-0.17-0.93-0.51-1.32
				c-0.34-0.39-1.05-0.59-2.13-0.59h-4.99c-1.37,0-2.37-0.51-3.01-1.54c-0.64-1.03-0.95-2.28-0.95-3.74c0-1.17,0.2-2.4,0.59-3.67
				c0.39-1.27,0.98-2.47,1.76-3.6c0.78-1.13,1.74-2.03,2.86-2.72c1.13-0.68,2.37-1.03,3.74-1.03h4.7c2.15,0,3.48-0.47,3.97-1.4
				c0.49-0.93,0.83-1.74,1.03-2.42l9.84-32.45c0.29-0.98,1.4-1.71,3.3-2.2c1.91-0.49,3.99-0.73,6.24-0.73
				c1.96,0,3.74,0.22,5.36,0.66c1.61,0.44,2.42,1.1,2.42,1.98v0.29l-9.69,31.86c-0.1,0.29-0.2,0.61-0.29,0.96
				c-0.1,0.34-0.15,0.71-0.15,1.1c0,0.59,0.2,1.13,0.59,1.61c0.39,0.49,1.22,0.73,2.5,0.73h17.91c0.98,0,1.69,0.37,2.13,1.1
				c0.44,0.73,0.66,1.69,0.66,2.86s-0.22,2.5-0.66,3.97c-0.44,1.47-1.08,2.81-1.91,4.04c-0.83,1.22-1.81,2.25-2.94,3.08
				c-1.13,0.83-2.37,1.25-3.74,1.25h-16.74c-1.47,0-2.62,0.51-3.45,1.54c-0.83,1.03-1.44,2.13-1.84,3.3l-15.12,50.36H488.8z"/>
			<path class="etast6" d="M567.06,317.72c0.2,0,0.42-0.02,0.66-0.07c0.24-0.05,0.56-0.07,0.95-0.07c0.88,0,1.74,0.15,2.57,0.44
				c0.83,0.29,1.25,0.98,1.25,2.06c0,0.98-0.49,1.88-1.47,2.72c-0.98,0.83-2.2,1.54-3.67,2.13c-1.47,0.59-3.13,1.05-4.99,1.4
				c-1.86,0.34-3.67,0.51-5.43,0.51c-2.45,0-4.55-0.39-6.31-1.17c-1.76-0.78-2.64-2.06-2.64-3.82c0-0.39,0.1-0.98,0.29-1.76
				l4.7-16.15l4.7-11.45c-0.49,0.69-1.05,1.57-1.69,2.64l-1.91,3.23c-0.64,1.08-1.27,2.13-1.91,3.16c-0.64,1.03-1.15,1.84-1.54,2.42
				c-2.06,2.64-4.41,5.26-7.05,7.86s-5.41,4.92-8.3,6.98c-2.89,2.05-5.82,3.72-8.81,4.99s-5.8,1.91-8.44,1.91
				c-0.98,0-1.81-1.08-2.5-3.23c-0.68-2.15-1.03-5.14-1.03-8.96c0-7.63,1.47-16.32,4.41-26.06c2.94-9.74,6.71-20.83,11.31-33.26
				c-0.2,0.1-0.44,0.15-0.73,0.15c-0.29,0.1-0.83,0.15-1.61,0.15c-0.88,0-1.74-0.17-2.57-0.51s-1.25-1.05-1.25-2.13
				c0-0.98,0.49-1.89,1.47-2.72c0.98-0.83,2.23-1.54,3.74-2.13c1.52-0.59,3.21-1.05,5.07-1.4c1.86-0.34,3.67-0.51,5.43-0.51
				c2.45,0,4.53,0.37,6.24,1.1c1.71,0.73,2.57,1.98,2.57,3.74c0,0.78-0.1,1.42-0.29,1.91c-0.88,2.45-1.96,5.38-3.23,8.81
				c-1.27,3.43-2.57,7-3.89,10.72c-1.32,3.72-2.62,7.44-3.89,11.16c-1.27,3.72-2.4,7.05-3.38,9.98c-0.68,2.15-1.03,3.97-1.03,5.43
				c0,2.25,0.68,3.38,2.06,3.38c0.68,0,1.47-0.29,2.35-0.88c0.88-0.59,2.4-1.91,4.55-3.96c2.15-2.06,4.53-4.5,7.12-7.34
				c2.59-2.84,5.21-5.97,7.86-9.4c2.64-3.43,4.9-6.85,6.75-10.28c0.2-0.98,0.64-2.45,1.32-4.41c0.68-1.96,1.44-4.06,2.28-6.31
				c0.83-2.25,1.64-4.43,2.42-6.54c0.78-2.1,1.42-3.74,1.91-4.92c0.29-0.78,1.42-1.35,3.38-1.69c1.96-0.34,4.01-0.51,6.17-0.51
				c1.96,0,3.67,0.17,5.14,0.51c1.47,0.34,2.2,0.86,2.2,1.54v0.15l-22.03,70.48H567.06z"/>
			<path class="etast6" d="M599.95,254.29c-0.29,0.1-0.83,0.15-1.62,0.15c-0.88,0-1.74-0.17-2.57-0.51c-0.83-0.34-1.25-1.05-1.25-2.13
				c0-0.98,0.49-1.89,1.47-2.72c0.98-0.83,2.2-1.54,3.67-2.13c1.47-0.59,3.13-1.05,4.99-1.4c1.86-0.34,3.67-0.51,5.43-0.51
				c2.45,0,4.55,0.39,6.31,1.17c1.76,0.78,2.64,2.06,2.64,3.82c0,0.39-0.1,0.98-0.29,1.76l-9.99,31.86c2.74-4.5,5.87-9.06,9.4-13.66
				s7-8.76,10.43-12.48c3.43-3.72,6.71-6.75,9.84-9.1c3.13-2.35,5.73-3.52,7.78-3.52c2.25,0,3.84,0.83,4.77,2.5s1.39,3.67,1.39,6.02
				c0,3.13-0.44,5.95-1.32,8.44c-0.88,2.5-1.93,4.62-3.16,6.39c-1.22,1.76-2.45,3.13-3.67,4.11c-1.22,0.98-2.18,1.47-2.86,1.47
				c-1.57,0-2.89-0.32-3.96-0.95c-1.08-0.64-1.62-1.79-1.62-3.45c0-0.98,0.2-2.06,0.59-3.23c-3.13,2.94-6.53,6.61-10.2,11.01
				c-3.67,4.41-7.2,8.86-10.57,13.36c-3.38,4.5-6.41,8.74-9.1,12.7c-2.69,3.96-4.67,6.88-5.95,8.74c-1.08,1.66-1.96,3.23-2.64,4.7
				c-0.68,1.47-1.22,2.74-1.61,3.82c-0.39,1.27-0.73,2.5-1.03,3.67c-0.1,0.78-1.15,1.44-3.16,1.98c-2.01,0.54-4.14,0.81-6.39,0.81
				c-1.66,0-3.16-0.2-4.48-0.59c-1.32-0.39-1.98-0.98-1.98-1.76c0-0.1,0.02-0.17,0.07-0.22c0.05-0.05,0.07-0.12,0.07-0.22
				l21.29-70.04C600.49,254.24,600.25,254.29,599.95,254.29z"/>
			<path class="etast6" d="M707.58,275.88c0.2,0,0.29,0.29,0.29,0.88c0,1.17-0.37,3.25-1.1,6.24c-0.73,2.99-1.62,6.09-2.64,9.32
				c-1.03,3.23-2.1,6.17-3.23,8.81c-1.13,2.64-2.08,4.26-2.86,4.85c-4.31,4.01-8.81,7.63-13.51,10.87
				c-4.11,2.74-8.66,5.21-13.66,7.42c-4.99,2.2-10.03,3.3-15.12,3.3c-0.29,0-1.2-0.1-2.72-0.29c-1.52-0.2-3.11-0.91-4.77-2.13
				c-1.66-1.22-3.16-3.11-4.48-5.65c-1.32-2.54-1.98-6.17-1.98-10.87c0-2.74,0.29-5.87,0.88-9.4c0.59-3.52,1.57-7.59,2.94-12.19
				c2.94-9.69,6.46-17.4,10.57-23.13c4.11-5.73,8.22-10.06,12.33-12.99c4.11-2.94,7.95-4.85,11.53-5.73
				c3.57-0.88,6.29-1.32,8.15-1.32c3.43,0,5.95,1.1,7.56,3.3c1.62,2.2,2.42,5.02,2.42,8.44c0,3.52-0.81,7.46-2.42,11.82
				c-1.61,4.36-3.89,8.52-6.83,12.48c-2.94,3.96-6.44,7.44-10.5,10.43c-4.06,2.99-8.59,4.97-13.58,5.95
				c-1.37,0.29-2.42,0.73-3.16,1.32c-0.73,0.59-1.1,2.05-1.1,4.4c0,1.96,0.39,3.65,1.17,5.07c0.78,1.42,2.2,2.13,4.26,2.13
				c2.94,0,6.14-0.78,9.62-2.35s7.02-3.77,10.65-6.61c3.62-2.84,7.17-6.22,10.64-10.13c3.48-3.92,6.68-8.27,9.62-13.07
				C707.04,276.27,707.38,275.88,707.58,275.88z M678.21,258.92c-1.47,1.22-2.89,2.84-4.26,4.85c-1.37,2.01-2.67,4.28-3.89,6.83
				c-1.22,2.54-2.28,5.14-3.16,7.78c-0.2,0.59-0.34,1.08-0.44,1.47s-0.15,0.73-0.15,1.03c0,0.39,0.15,0.59,0.44,0.59
				c0.2,0,0.78-0.24,1.76-0.73c2.15-1.17,4.21-2.72,6.17-4.62c1.96-1.91,3.67-3.89,5.14-5.95c1.47-2.05,2.62-4.04,3.45-5.95
				c0.83-1.91,1.25-3.5,1.25-4.77c0-1.57-0.68-2.35-2.06-2.35C681.1,257.08,679.68,257.69,678.21,258.92z"/>
		</g>
	</g>
</g>
</svg>
