<svg version="1.1" id="Layer_1" xmlns="http://www.w3.org/2000/svg" x="0" y="0" viewBox="0 0 2454.94 530" xml:space="preserve"><style>.st1{fill:none;stroke:#4000ff;stroke-width:30;stroke-linecap:round;stroke-miterlimit:10}.st2{fill:#4000ff}</style><path class="st2" d="M774.13 284.41h-53.2c-12.29 0-18.43-5.86-18.43-17.59s6.14-17.59 18.43-17.59h63.47c10.05 0 17.18 2.3 21.37 6.91 4.19 4.61 6.21 14.73 6.07 30.37 0 35.75-8.66 67.17-25.99 94.26-9.36 14.52-22.85 25.84-40.46 33.93-17.61 8.1-38.01 12.15-61.22 12.15s-43.24-4.33-60.11-12.99c-31.28-16.2-53.11-44.42-65.49-84.65-5.71-18.44-8.57-39.51-8.57-63.23s4.82-47.03 14.45-69.94c9.77-22.91 25.41-41.9 46.92-56.99 21.5-15.09 47.06-22.63 76.66-22.63 29.6 0 54.67 5.74 75.2 17.21s30.86 22.04 31 31.69c0 5.18-1.77 9.45-5.31 12.8-3.68 3.36-7.79 5.11-12.31 5.25-4.53 0-9.62-1.81-15.28-5.44-5.66-3.76-11.32-7.73-16.98-11.91s-13.73-8.08-24.2-11.7c-10.47-3.62-23.07-5.36-37.78-5.23-14.72 0-28.51 3.55-41.39 10.66-23.21 12.83-39.06 35.48-47.55 67.96-3.82 14.08-5.73 28.79-5.73 44.12 0 30.39 7.41 57.92 22.23 82.6 7.27 12.13 17.47 21.75 30.61 28.86 13.14 7.11 28.31 10.73 45.51 10.87 27.54-.14 49.14-9.68 64.8-28.64 15.66-18.96 23.41-40 23.28-63.14v-17.97zM826.41 406.73V213.61c.14-6.14 1.89-11.03 5.24-14.66 3.35-3.63 7.89-5.45 13.62-5.45 5.72 0 10.26 1.82 13.62 5.45 3.35 3.63 5.1 8.52 5.24 14.66v19.48h.84c4.89-10.05 12.22-19.13 21.99-27.23 9.77-8.24 18.78-12.36 27.02-12.36 8.24 0 14.24 1.89 18.01 5.66 3.77 3.77 5.58 8.31 5.45 13.62 0 10.89-7.26 17.59-21.78 20.11-14.52 2.51-26.74 9.08-36.66 19.69-9.92 10.47-14.87 25.7-14.87 45.66v108.5c0 6.28-1.75 11.24-5.24 14.87-3.63 3.49-8.24 5.24-13.82 5.24-5.59 0-10.13-1.75-13.62-5.24-3.37-3.64-5.04-8.59-5.04-14.88zM1128.79 211.93v196.48c0 6.01-1.89 10.61-5.66 13.82-3.77 3.07-7.89 4.61-12.36 4.61s-8.38-1.54-11.73-4.63c-3.63-3.09-5.45-7.73-5.45-13.91v-16.01h-.84c-16.06 23.04-36.8 34.56-62.21 34.56-30.86 0-55.3-11.48-73.31-34.43-18.01-22.96-27.02-50.4-27.02-82.34 0-31.94 9.01-59.35 27.02-82.24 18.01-22.88 42.45-34.33 73.31-34.33 22.9 0 43.64 10.19 62.21 30.58h.84v-12.15c0-6.14 1.81-10.75 5.45-13.82 3.63-3.07 7.68-4.61 12.15-4.61 4.47 0 8.52 1.54 12.15 4.61 3.63 3.06 5.45 7.67 5.45 13.81zm-160.87 98.14c0 22.31 5.16 41.91 15.5 58.79 10.33 16.88 26.11 25.31 47.34 25.31 21.22 0 36.87-8.44 46.92-25.31 10.33-16.88 15.5-36.47 15.5-58.79 0-22.45-5.17-42.05-15.5-58.78-10.34-16.74-26.11-25.11-47.34-25.11-21.23 0-36.87 8.37-46.92 25.1-10.33 16.74-15.5 36.33-15.5 58.79zM1156.98 406.73V213.61c.14-6.14 1.89-11.03 5.24-14.66 3.35-3.63 7.89-5.45 13.62-5.45 5.72 0 10.26 1.82 13.62 5.45 3.35 3.63 5.1 8.52 5.24 14.66v9.01l.84 1.05c15.78-19.97 36.79-30.02 63.05-30.16 18.85 0 36.45 6.36 52.78 19.06 7.96 6.42 14.38 15.43 19.27 27.02 4.89 11.59 7.33 25.14 7.33 40.64v126.52c0 6.28-1.75 11.24-5.24 14.87-3.63 3.49-8.24 5.24-13.82 5.24-5.59 0-10.13-1.82-13.62-5.45-3.49-3.63-5.17-8.52-5.03-14.66V282.31c0-18.57-5.31-32.6-15.92-42.1-10.61-9.35-22.9-14.03-36.87-14.03-13.97 0-26.25 4.75-36.87 14.24-10.61 9.5-15.92 23.46-15.92 41.89v124.42c0 6.28-1.75 11.24-5.24 14.87-3.63 3.49-8.24 5.24-13.82 5.24-5.59 0-10.13-1.75-13.62-5.24-3.34-3.63-5.02-8.58-5.02-14.87zM1515.29 406.6v-11.17h-.84c-11.03 20.94-31.35 31.41-60.95 31.41-29.61 0-53.2-11.48-70.8-34.43-17.59-22.96-26.39-50.4-26.39-82.34 0-31.94 8.8-59.35 26.39-82.24 17.59-22.88 41.26-34.33 71.01-34.33 13.68 0 25.83 3.07 36.45 9.22 10.61 6.15 18.71 13.41 24.3 21.78h.84V113.27c0-6.28 1.73-11.24 5.21-14.87 3.47-3.63 8.05-5.37 13.75-5.24 5.83 0 10.41 1.82 13.75 5.45 3.33 3.63 5 8.52 5 14.66v293.46c0 6.28-1.81 11.24-5.43 14.87-3.62 3.49-8.33 5.24-14.12 5.24-5.79 0-10.3-1.83-13.51-5.48-3.12-3.65-4.66-8.57-4.66-14.76zm2.51-96.53c0-22.45-4.92-42.05-14.77-58.78-9.84-16.74-25.38-25.11-46.61-25.11s-36.87 8.44-46.92 25.31c-10.34 16.88-15.5 36.47-15.5 58.79 0 22.31 5.16 41.84 15.5 58.58 10.33 16.88 26.11 25.31 47.34 25.31 21.22 0 36.62-8.44 46.2-25.31 9.84-16.88 14.76-36.48 14.76-58.79zM1577.83 257.77c0-19.68 7.82-35.3 23.46-46.89 15.64-11.58 32.89-17.38 51.74-17.38s36.66 3.91 53.41 11.72c16.76 7.82 25.06 17.38 24.93 28.68.14 4.33-1.33 8.02-4.4 11.09-3.07 3.07-7.05 4.47-11.94 4.19-4.89 0-9.71-1.95-14.45-5.86-14.66-11.71-28.7-17.5-42.1-17.36-13.41.14-23.88 2.72-31.42 7.74-7.68 5.02-11.52 11.58-11.52 19.67 0 8.09 4.19 14.99 12.57 20.71 8.38 5.72 18.57 10.74 30.58 15.06a749.44 749.44 0 0135.61 14.01c12.01 5.02 22.2 12.14 30.58 21.34 8.38 9.07 12.57 19.67 12.57 31.8 0 22.67-8.17 40.1-24.51 52.28-16.34 12.18-35.96 18.27-58.86 18.27s-42.87-4.63-59.91-13.89c-17.18-9.26-25.76-19.15-25.76-29.67 0-5.16 1.53-9.27 4.61-12.34 6.56-6.69 15.5-5.93 26.81 2.3 18.43 13.95 37 20.92 55.72 20.92 13.12 0 23.74-3.07 31.84-9.2 8.24-6.28 12.36-13.46 12.36-21.55s-4.19-15.34-12.57-21.76c-8.38-6.42-18.57-11.99-30.58-16.74a966.189 966.189 0 01-35.61-15.06c-12.01-5.3-22.2-12.41-30.58-21.34-8.39-8.92-12.58-19.17-12.58-30.74zM1763.96 196.01v-49.22c0-6.28 1.74-11.24 5.24-14.87 3.49-3.63 8.03-5.45 13.62-5.45 5.58 0 10.19 1.82 13.82 5.45 3.49 3.63 5.16 8.59 5.03 14.87v49.22h15.5c12.57 0 18.85 5.45 18.85 16.34s-6.28 16.34-18.85 16.34h-15.5v178.04c0 6.28-1.68 11.24-5.03 14.87-3.35 3.49-7.96 5.24-13.82 5.24s-10.47-1.82-13.82-5.45-5.03-8.52-5.03-14.66V228.69h-15.5c-12.57 0-18.85-5.45-18.85-16.34s6.28-16.34 18.85-16.34h15.49zM2030.74 211.93v196.48c0 6.01-1.89 10.61-5.66 13.82-3.77 3.07-7.89 4.61-12.36 4.61s-8.38-1.54-11.73-4.63c-3.63-3.09-5.45-7.73-5.45-13.91v-16.01h-.84c-16.06 23.04-36.8 34.56-62.21 34.56-30.86 0-55.3-11.48-73.31-34.43-18.01-22.96-27.02-50.4-27.02-82.34 0-31.94 9.01-59.35 27.02-82.24 18.01-22.88 42.45-34.33 73.31-34.33 22.9 0 43.64 10.19 62.21 30.58h.84v-12.15c0-6.14 1.81-10.75 5.45-13.82 3.63-3.07 7.68-4.61 12.15-4.61 4.47 0 8.52 1.54 12.15 4.61 3.63 3.06 5.45 7.67 5.45 13.81zm-160.87 98.14c0 22.31 5.16 41.91 15.5 58.79 10.33 16.88 26.11 25.31 47.34 25.31 21.22 0 36.87-8.44 46.92-25.31 10.33-16.88 15.5-36.47 15.5-58.79 0-22.45-5.17-42.05-15.5-58.78-10.34-16.74-26.11-25.11-47.34-25.11-21.23 0-36.87 8.37-46.92 25.1-10.34 16.74-15.5 36.33-15.5 58.79zM2058.93 406.73V213.61c.14-6.14 1.89-11.03 5.24-14.66 3.35-3.63 7.89-5.45 13.61-5.45s10.26 1.82 13.62 5.45c3.35 3.63 5.1 8.52 5.24 14.66v9.01l.84 1.05c15.78-19.97 36.79-30.02 63.05-30.16 18.85 0 36.45 6.36 52.78 19.06 7.96 6.42 14.38 15.43 19.27 27.02 4.89 11.59 7.33 25.14 7.33 40.64v126.52c0 6.28-1.75 11.24-5.24 14.87-3.63 3.49-8.24 5.24-13.82 5.24-5.59 0-10.13-1.82-13.61-5.45-3.49-3.63-5.17-8.52-5.03-14.66V282.31c0-18.57-5.31-32.6-15.92-42.1-10.61-9.35-22.9-14.03-36.87-14.03-13.97 0-26.25 4.75-36.87 14.24-10.61 9.5-15.92 23.46-15.92 41.89v124.42c0 6.28-1.75 11.24-5.24 14.87-3.63 3.49-8.24 5.24-13.82 5.24-5.59 0-10.13-1.75-13.62-5.24-3.35-3.63-5.02-8.58-5.02-14.87zM2417.24 406.6v-11.17h-.84c-11.03 20.94-31.35 31.41-60.95 31.41-29.61 0-53.2-11.48-70.8-34.43-17.59-22.96-26.39-50.4-26.39-82.34 0-31.94 8.8-59.35 26.39-82.24 17.59-22.88 41.26-34.33 71.01-34.33 13.68 0 25.83 3.07 36.45 9.22 10.61 6.15 18.71 13.41 24.3 21.78h.84V113.27c0-6.28 1.73-11.24 5.21-14.87 3.47-3.63 8.05-5.37 13.75-5.24 5.83 0 10.41 1.82 13.75 5.45 3.33 3.63 5 8.52 5 14.66v293.46c0 6.28-1.81 11.24-5.43 14.87-3.62 3.49-8.33 5.24-14.12 5.24-5.79 0-10.3-1.83-13.51-5.48-3.12-3.65-4.66-8.57-4.66-14.76zm2.51-96.53c0-22.45-4.92-42.05-14.77-58.78s-25.38-25.11-46.61-25.11-36.87 8.44-46.92 25.31c-10.34 16.88-15.5 36.47-15.5 58.79 0 22.31 5.16 41.84 15.5 58.58 10.33 16.88 26.11 25.31 47.34 25.31 21.22 0 36.62-8.44 46.2-25.31 9.84-16.88 14.76-36.48 14.76-58.79z"/><g><path class="st1" d="M215 515V15M165 330V60M265 330V60M115 350V60M65 310V100M15 260v-70M315 350V60M365 310V100M415 260v-70"/></g></svg>