<?xml version="1.0" encoding="utf-8"?>
<!-- Generator: Adobe Illustrator 25.1.0, SVG Export Plug-In . SVG Version: 6.00 Build 0)  -->
<svg version="1.1" id="Layer_1" xmlns="http://www.w3.org/2000/svg" xmlns:xlink="http://www.w3.org/1999/xlink" x="0px" y="0px"
	 viewBox="0 0 479.1 54.09" style="enable-background:new 0 0 479.1 54.09;" xml:space="preserve">
<style type="text/css">
	.homecooked-fill{fill:rgb(79,161,119);}
</style>
<g>
	<path class="homecooked-fill" d="M124.93,20.97c3.82-5.79,8.96-7.74,15.3-6.46c5.81,1.17,9.1,5.28,9.3,12.19c0.24,8.24,0.04,16.48,0.09,24.72
		c0.01,1.31-0.45,1.67-1.74,1.72c-5.05,0.19-5.05,0.23-5.05-4.84c0-6.41,0.02-12.82-0.01-19.23c-0.02-6-2.72-9.02-7.94-8.98
		c-4.79,0.04-8.13,3.7-8.17,9.13c-0.06,7.16-0.07,14.32,0.02,21.48c0.02,1.75-0.29,2.51-2.29,2.46c-4.5-0.1-4.5,0.01-4.5-4.43
		c0-6.66,0.02-13.32-0.01-19.98c-0.02-5.55-2.55-8.46-7.43-8.66c-4.54-0.19-8.55,3.5-8.68,8.48c-0.2,7.4-0.15,14.82-0.05,22.23
		c0.02,1.87-0.47,2.41-2.36,2.36c-4.37-0.11-4.37,0-4.37-4.31c0-10.49,0.07-20.98-0.06-31.47c-0.03-2.28,0.65-2.82,2.81-2.71
		c3.5,0.17,3.5,0.04,3.54,3.66c0,0.42,0,0.83,0,1.85c2.92-4.03,6.4-6.18,11.04-6.03C119.11,14.27,122.6,16.39,124.93,20.97z"/>
	<path class="homecooked-fill" d="M472.08,48.11c-0.34,0.31-0.66,0.53-0.89,0.83c-5.56,7.18-19.95,6.96-24.95-4.02
		c-3.32-7.28-3.3-14.72,0.02-21.97c4.81-10.5,18.95-11.83,26.02-2.6c0-2.61,0-4.7,0-6.79c0-3.91,0.04-7.82-0.02-11.73
		c-0.02-1.27,0.37-1.7,1.69-1.76c5.1-0.21,5.1-0.26,5.1,4.83c0,15.14-0.06,30.28,0.06,45.43c0.02,2.36-0.71,3.14-2.92,2.79
		c-0.49-0.08-1.01-0.08-1.49,0c-1.82,0.28-2.33-0.56-2.18-2.25C472.57,50.03,472.82,49.08,472.08,48.11z M472.27,34.09
		c0.11-3.05-0.38-5.98-1.91-8.65c-2.02-3.52-5-5.49-9.18-5.37c-4.08,0.12-7.04,2.15-8.68,5.73c-2.51,5.49-2.54,11.13,0.13,16.61
		c1.76,3.62,4.77,5.37,8.83,5.4c4.09,0.03,6.97-1.81,8.9-5.32C471.8,39.88,472.36,37.06,472.27,34.09z"/>
	<path class="homecooked-fill" d="M6.79,20.3c3.22-4.55,7.28-6.19,12.12-6.16c7.4,0.04,12.76,4.45,13.19,11.88c0.48,8.55,0.19,17.15,0.25,25.72
		c0.01,0.91-0.3,1.27-1.27,1.39c-5.18,0.63-5.47,0.41-5.48-4.72c0-6.25,0.03-12.49-0.02-18.74c-0.04-6.2-3.09-9.52-8.69-9.59
		c-5.65-0.07-9.92,3.87-10.03,9.57c-0.14,6.99-0.12,13.99-0.02,20.99c0.03,1.96-0.49,2.58-2.5,2.52c-4.29-0.12-4.29-0.01-4.29-4.39
		C0.04,33.36,0.08,17.95,0,2.54C-0.01,0.57,0.53,0,2.5,0.06c4.28,0.13,4.29,0.02,4.29,4.44C6.79,9.54,6.79,14.59,6.79,20.3z"/>
	<path class="homecooked-fill" d="M417.46,35.86c-3.83,0-7.66,0.09-11.49-0.04c-1.84-0.06-2.34,0.58-2.08,2.32c0.71,4.82,3.64,8.44,7.76,9.43
		c5.23,1.26,9.01-0.16,12.05-4.67c1.08-1.6,2.57-0.78,3.84-0.83c3.43-0.14,3.57,0.19,2.06,3.37c-2.55,5.38-8.84,8.53-15.58,8.35
		c-11.71-0.31-17.48-9.26-17.08-20.79c0.1-2.99,0.62-5.95,1.85-8.74c3.16-7.22,10.19-11.16,18.02-10.04
		c7.52,1.08,12.82,6.47,13.92,14.24c0.25,1.81,0.27,3.65,0.48,5.46c0.18,1.59-0.51,1.98-2,1.95
		C425.29,35.81,421.37,35.86,417.46,35.86z M413.76,30.58c2.91,0,5.83-0.07,8.74,0.03c1.51,0.05,1.84-0.46,1.56-1.89
		c-1.05-5.52-4.81-8.77-10.18-8.66c-5.01,0.1-9.08,3.94-9.92,9.19c-0.22,1.34,0.39,1.34,1.31,1.34
		C408.1,30.57,410.93,30.58,413.76,30.58z"/>
	<path class="homecooked-fill" d="M184.56,35.86c-4,0-8,0.04-11.99-0.02c-1.31-0.02-1.85,0.44-1.68,1.74c0.55,4.09,2.09,7.69,6.12,9.35
		c3.87,1.59,7.82,1.52,11.39-1.1c0.47-0.34,1.05-0.72,1.23-1.21c1.25-3.42,4.12-2.53,6.65-2.61c1.19-0.04,1.4,0.42,1.09,1.5
		c-0.95,3.28-2.94,5.77-5.78,7.56c-11.68,7.41-25.92,0.44-27.37-13.28c-0.62-5.9-0.02-11.5,3.27-16.53
		c3.83-5.88,10.86-8.35,18.26-6.66c6.4,1.46,11.13,6.96,12.04,14.06c0.22,1.73,0.25,3.48,0.45,5.21c0.17,1.51-0.38,2.05-1.93,2.01
		C192.39,35.8,188.48,35.86,184.56,35.86z M181.09,30.58c2.83,0,5.66-0.07,8.49,0.03c1.57,0.06,1.79-0.55,1.52-1.92
		c-1.07-5.54-4.82-8.75-10.2-8.63c-5,0.11-9.11,4.02-9.9,9.22c-0.21,1.39,0.48,1.31,1.36,1.3
		C175.27,30.58,178.18,30.58,181.09,30.58z"/>
	<path class="homecooked-fill" d="M387.44,14.71c-1.23,1.29-2.04,2.19-2.89,3.04c-4.01,3.99-7.97,8.05-12.1,11.93c-1.45,1.36-1.3,2.23-0.15,3.66
		c4.56,5.63,9,11.35,13.47,17.04c0.6,0.76,1.14,1.57,1.98,2.73c-2.53,0-4.66-0.04-6.78,0.02c-1.14,0.03-1.56-0.81-2.12-1.5
		c-3.64-4.55-7.24-9.13-10.93-13.64c-0.61-0.74-1.06-2.46-2.21-1.81c-1.33,0.74-2.96,1.69-2.96,3.69c0,3.58-0.09,7.16,0.04,10.74
		c0.07,1.88-0.36,2.63-2.45,2.57c-4.32-0.14-4.33-0.01-4.33-4.35c0-15.32,0.04-30.64-0.05-45.97c-0.01-2.11,0.38-2.92,2.7-2.8
		c4.07,0.21,4.08,0.05,4.08,4.15c0,8.82,0,17.65,0,26.47c0.95,0.25,1.21-0.54,1.63-0.96c4.14-4.11,8.35-8.15,12.32-12.41
		c1.86-2,3.81-3,6.53-2.62C384.42,14.85,385.65,14.71,387.44,14.71z"/>
	<path class="homecooked-fill" d="M64.7,53.78c-8.5,0.07-14.93-4.69-16.98-12.97c-1.86-7.49-1.45-14.83,3.78-21c4.74-5.59,11.15-6.73,17.98-5.08
		c6.82,1.64,10.65,6.48,12.26,13.11c1.01,4.17,0.92,8.4-0.07,12.58C79.68,48.74,73.33,53.71,64.7,53.78z M75.54,33.94
		c-0.09-1.31-0.1-2.56-0.27-3.8c-0.83-5.92-4.78-9.87-9.99-10.07c-5.75-0.21-9.68,2.95-11.1,9.03c-0.75,3.2-0.74,6.45-0.01,9.65
		c1.43,6.24,5.23,9.26,11.28,9.03c5.1-0.19,8.95-4.05,9.81-9.92C75.45,36.55,75.46,35.21,75.54,33.94z"/>
	<path class="homecooked-fill" d="M323.25,53.79c-9.33-0.02-16.25-6.21-17.49-15.46c-0.59-4.45-0.45-8.82,1.11-13.03
		c2.78-7.49,8.93-11.38,17.34-11.16c7.43,0.19,13.39,4.73,15.67,12.08c1.56,5.04,1.59,10.16,0.06,15.22
		C337.55,49.39,331.5,53.81,323.25,53.79z M312.24,34.61c0,1.81,0.3,4.35,1.35,6.75c1.93,4.44,5.09,6.48,9.94,6.43
		c4.51-0.05,7.86-2.32,9.47-6.73c1.8-4.94,1.79-9.97-0.28-14.82c-3.07-7.22-12.77-8.43-17.63-2.25
		C312.83,26.85,312.28,30.28,312.24,34.61z"/>
	<path class="homecooked-fill" d="M292.71,33.71c-0.17,3.22-0.43,5.85-1.3,8.4c-2.86,8.43-9.97,12.57-19.72,11.47
		c-7.42-0.84-13.45-7.42-14.37-15.69c-0.67-6.02-0.15-11.82,3.49-16.92c4.13-5.78,11.39-8.13,18.93-6.3
		c6.46,1.57,11.38,7.21,12.48,14.38C292.49,30.78,292.59,32.53,292.71,33.71z M285.76,33.82c0.15-2.46-0.25-4.99-1.3-7.38
		c-1.76-4.03-4.83-6.24-9.28-6.36c-4.55-0.12-7.89,1.93-9.73,6.03c-2.24,5.01-2.21,10.2-0.2,15.26c1.65,4.17,4.81,6.37,9.43,6.44
		c4.72,0.07,7.89-2.1,9.77-6.31C285.52,39.11,285.88,36.58,285.76,33.82z"/>
	<path class="homecooked-fill" d="M228.58,53.81c-12.91-0.2-18.15-10.2-17.59-21.34c0.32-6.33,2.37-11.92,7.93-15.63
		c9.32-6.22,22.47-1.87,25.43,8.33c0.52,1.79,0.35,2.47-1.78,2.51c-2.65,0.04-4.33-0.32-5.74-3.15c-2.64-5.32-10.74-6.01-15.07-1.73
		c-5.07,5.02-5.3,16.22-0.69,21.7c4.03,4.8,14.34,4.77,16.73-2.51c0.71-2.17,2.4-1.37,3.74-1.4c3.63-0.09,3.76,0.15,2.5,3.54
		C241.8,50.13,235.69,53.96,228.58,53.81z"/>
</g>
</svg>
