<?xml version="1.0" encoding="utf-8"?>
<!-- Generator: Adobe Illustrator 16.0.0, SVG Export Plug-In . SVG Version: 6.00 Build 0)  -->
<!DOCTYPE svg PUBLIC "-//W3C//DTD SVG 1.1//EN" "http://www.w3.org/Graphics/SVG/1.1/DTD/svg11.dtd">
<svg version="1.1" id="Layer_1" xmlns="http://www.w3.org/2000/svg" xmlns:xlink="http://www.w3.org/1999/xlink" x="0px" y="0px"
	 width="84.568px" height="14px" viewBox="0 0 84.568 14" enable-background="new 0 0 84.568 14" xml:space="preserve">
<path d="M6.843,0c1.223,2.055,2.448,4.107,3.672,6.16c-1.55,2.253-3.224,4.476-4.832,6.74c-0.095,0.135-0.27,0.455-0.312,0.457
	c-0.068,0.004-0.265-0.383-0.352-0.519c-0.785-1.231-1.571-2.46-2.344-3.692C1.764,7.693,0.864,6.352,0,4.915C0,3.277,0,1.639,0,0
	C2.279,0,4.562,0,6.843,0z"/>
<path d="M13.501,0c1.791,0,3.58,0,5.371,0c0,4.666,0,9.333,0,14c-0.924,0-1.853,0-2.779,0c-0.897-1.626-1.942-3.15-2.903-4.729
	c-0.961-1.584-1.931-3.164-2.903-4.75C11.345,3.001,12.433,1.508,13.501,0z"/>
<path d="M0,6.305C1.614,8.859,3.279,11.363,4.811,14C3.207,14,1.603,14,0,14C0,11.438,0,8.869,0,6.305z"/>
<path d="M15.304,14c-0.387,0-0.771,0-1.16,0c-1.564-1.762-3.107-3.542-4.687-5.29c0.458-0.593,0.875-1.226,1.328-1.825
	C12.416,9.132,13.775,11.652,15.304,14z"/>
<g>
	<path d="M28.163,10.197V4.59l-2.259,5.607h-0.34L23.295,4.59v5.607h-0.829V3.531h1.189l2.079,5.137l2.069-5.137h1.189v6.667H28.163
		z"/>
	<path d="M35.313,10.197l-0.59-1.489h-3.318l-0.589,1.489h-0.95l2.688-6.667h1.03l2.678,6.667H35.313z M33.064,4.38l-1.409,3.598
		h2.829L33.064,4.38z"/>
	<path d="M38.115,10.197V4.271h-2.109v-0.74h5.057v0.74h-2.119v5.927H38.115z"/>
	<path d="M41.626,6.869c0-2.049,1.508-3.448,3.428-3.448c1.18,0,1.998,0.56,2.529,1.319l-0.691,0.39
		c-0.379-0.569-1.078-0.969-1.838-0.969c-1.459,0-2.568,1.109-2.568,2.708c0,1.579,1.109,2.709,2.568,2.709
		c0.76,0,1.459-0.41,1.838-0.971l0.701,0.381c-0.561,0.77-1.359,1.329-2.539,1.329C43.135,10.317,41.626,8.918,41.626,6.869z"/>
	<path d="M53.383,10.197V7.139h-3.896v3.058h-0.83V3.531h0.83v2.869h3.896V3.531h0.83v6.667H53.383z"/>
	<path d="M55.506,6.869c0-2.049,1.51-3.448,3.428-3.448c1.18,0,2,0.56,2.529,1.319l-0.689,0.39c-0.379-0.569-1.08-0.969-1.84-0.969
		c-1.459,0-2.568,1.109-2.568,2.708c0,1.579,1.109,2.709,2.568,2.709c0.76,0,1.461-0.41,1.84-0.971l0.699,0.381
		c-0.559,0.77-1.359,1.329-2.539,1.329C57.016,10.317,55.506,8.918,55.506,6.869z"/>
	<path d="M67.264,10.197V7.139h-3.898v3.058h-0.83V3.531h0.83v2.869h3.898V3.531h0.83v6.667H67.264z"/>
	<path d="M74.414,10.197l-0.59-1.489h-3.318l-0.59,1.489h-0.949l2.688-6.667h1.029l2.68,6.667H74.414z M72.164,4.38l-1.408,3.598
		h2.828L72.164,4.38z"/>
	<path d="M77.215,10.197V4.271h-2.107v-0.74h5.057v0.74h-2.119v5.927H77.215z"/>
</g>
</svg>
