<svg class="white-red PapertrailLogo__StyledLogo-sc-16mya9n-0 cnisgj" viewBox="0 0 444 80">
	<title>Papertrail</title>
	<g class="logo-image white-red PapertrailLogo__StyledLogo-sc-16mya9n-0 cnisgj">
		<path fill="rgb(235, 55, 69)" d="M427.426 27.018C423.332 11.316 409.13 0 392.6 0c-19.854 0-36.008 16.146-36.008 35.993 0 19.846 16.153 35.993 36.007 35.993h28.464C433.71 71.986 444 61.7 444 49.057c0-10.431-6.953-19.279-16.574-22.039zm-6.364 38.48h-28.464c-16.273 0-29.516-13.236-29.516-29.505 0-16.27 13.24-29.505 29.516-29.505 15.07 0 27.54 11.547 29.303 26.147h-.021c8.69.427 15.63 7.63 15.63 16.42 0 9.066-7.377 16.443-16.448 16.443z"></path>
		<path fill="rgb(235, 55, 69)" d="M421.062 39.372h-5.711v-3.38c0-12.542-10.205-22.747-22.754-22.747-12.548 0-22.758 10.205-22.758 22.748 0 12.542 10.21 22.748 22.758 22.748h28.464c5.344 0 9.688-4.343 9.688-9.685.001-5.339-4.344-9.683-9.687-9.684"></path>
	</g>
		<path class="logo-text white-red PapertrailLogo__StyledLogo-sc-16mya9n-0 cnisgj" d="M7.106 80h-6C.496 80 0 79.504 0 78.895V20.94c0-.606.492-1.097 1.097-1.097H7.19c.61 0 1.103.494 1.103 1.104v4.482c4.234-4.402 9.48-6.602 15.235-6.602 13.795 0 23.868 10.323 23.868 23.944 0 6.346-2.37 12.268-6.602 16.67-4.57 4.819-9.903 7.02-16.758 7.02-6.177 0-11.426-2.197-15.826-6.684v19.115c0 .609-.494 1.105-1.104 1.105V80zm16.17-21.49c8.38 0 15.572-6.77 15.572-15.654 0-9.475-7.108-16.243-15.657-16.243-7.955 0-15.234 7.19-15.234 15.653 0 9.222 7.194 16.245 15.319 16.244zm65.682 1.351c-4.23 4.4-9.48 6.601-15.234 6.601-13.795 0-23.783-10.319-23.783-23.942 0-6.345 2.287-12.268 6.518-16.669 4.57-4.822 9.903-7.022 16.758-7.022 6.18 0 11.426 2.2 15.742 6.686v-4.4c0-.605.494-1.1 1.105-1.1h6.085c.61 0 1.104.495 1.104 1.1v43.229c0 .612-.494 1.104-1.104 1.104h-6.085c-.61 0-1.105-.492-1.105-1.105v-4.479l-.001-.003zm-14.81-1.181c7.956 0 15.234-7.19 15.234-15.654 0-9.223-7.28-16.242-15.405-16.242a15.546 15.546 0 0 0-15.573 15.65c0 9.476 7.196 16.244 15.743 16.244l.001.002zM106.99 80h-6.003c-.61 0-1.104-.496-1.104-1.105V20.946c0-.61.494-1.104 1.104-1.104h6.085c.61 0 1.104.494 1.104 1.104v4.482c4.232-4.4 9.48-6.6 15.235-6.6 13.797 0 23.868 10.322 23.868 23.943 0 6.347-2.37 12.27-6.6 16.67-4.57 4.822-9.903 7.02-16.76 7.02-6.177 0-11.424-2.197-15.825-6.682v19.115c0 .61-.494 1.107-1.104 1.106zm16.168-21.49c8.38 0 15.573-6.77 15.573-15.654 0-9.475-7.107-16.243-15.656-16.243-7.957 0-15.236 7.19-15.236 15.653 0 9.222 7.196 16.245 15.319 16.244zm50.195.17c5.204 0 9.707-2.502 12.38-6.902.202-.332.557-.545.947-.545h6.887c.813 0 1.35.853.997 1.584-4.356 9.132-11.835 13.986-21.21 13.986-6.687 0-12.273-2.369-16.76-7.109-4.315-4.484-6.77-10.746-6.77-16.838 0-6.431 2.2-12.013 6.432-16.581 4.573-4.992 10.327-7.447 16.928-7.447 7.958 0 15.15 3.807 19.636 10.575 2.71 4.148 3.894 8.972 3.894 15.23v.165c0 .61-.496 1.103-1.105 1.103h-37.15c1.352 7.701 7.445 12.781 14.893 12.781l.001-.002zm.085-31.896c-7.11 0-12.78 4.48-14.727 11.76h29.03c-2.03-7.45-7.276-11.76-14.303-11.76zm26.329 38.075V21.633c0-.608.493-1.104 1.105-1.104h5.49c.61 0 1.104.494 1.104 1.103v4.142c2.468-3.698 7.835-5.574 11.875-5.942.65-.06 1.212.453 1.212 1.106v6.374c0 .556-.412 1.028-.96 1.092-6.95.835-11.617 4.65-11.617 12.26v24.195c0 .611-.493 1.105-1.105 1.105h-6a1.104 1.104 0 0 1-1.104-1.105m30.965-36.521h-7.664a1.104 1.104 0 0 1-1.106-1.106v-5.235c0-.613.493-1.106 1.106-1.106h7.664V8.834c0-.61.496-1.104 1.104-1.104h5.918c.609 0 1.104.494 1.104 1.103V20.89h7.666c.61 0 1.105.495 1.105 1.107v5.235c0 .612-.497 1.106-1.105 1.106h-7.666v36.883c0 .609-.496 1.106-1.104 1.106h-5.915a1.107 1.107 0 0 1-1.105-1.106V28.34m18.974 36.519V21.635c0-.61.493-1.104 1.104-1.104h5.492c.61 0 1.104.494 1.104 1.104v4.143c2.472-3.708 7.853-5.583 11.896-5.946.644-.06 1.189.458 1.189 1.106v6.378c0 .547-.402 1.024-.947 1.088-6.958.83-11.63 4.644-11.63 12.264v24.19c0 .611-.492 1.104-1.104 1.104h-6a1.098 1.098 0 0 1-1.104-1.103m58.438-4.998c-4.23 4.4-9.479 6.601-15.232 6.601-13.796 0-23.783-10.319-23.783-23.942 0-6.345 2.287-12.268 6.518-16.669 4.57-4.822 9.903-7.022 16.759-7.022 6.178 0 11.427 2.2 15.74 6.686v-4.4c0-.605.494-1.1 1.106-1.1h6.085c.61 0 1.106.495 1.106 1.1v43.229c0 .612-.496 1.104-1.106 1.104h-6.085a1.102 1.102 0 0 1-1.105-1.105v-4.479l-.003-.003zm-14.81-1.181c7.956 0 15.234-7.19 15.234-15.654 0-9.223-7.278-16.242-15.405-16.242a15.542 15.542 0 0 0-15.569 15.65c0 9.476 7.192 16.244 15.739 16.244l.001.002zm28.51-44.91V7.556c0-.527.494-.954 1.104-.954h5.916c.609 0 1.104.427 1.104.954v6.212c0 .53-.495.956-1.104.956h-5.916c-.61 0-1.104-.428-1.104-.957v.003zm1.104 5.996h5.916c.609 0 1.104.492 1.104 1.104v43.226c0 .609-.495 1.104-1.104 1.104h-5.916c-.61 0-1.104-.496-1.104-1.105V20.87c0-.612.494-1.104 1.104-1.104zm13.874-13.163h5.914c.609 0 1.105.493 1.105 1.104v56.391c0 .607-.496 1.103-1.105 1.103h-5.914a1.103 1.103 0 0 1-1.105-1.104V7.706a1.1 1.1 0 0 1 1.105-1.103"></path>
	</g>
</svg>