<?xml version="1.0" encoding="utf-8"?>
<!-- Generator: Adobe Illustrator 21.0.0, SVG Export Plug-In . SVG Version: 6.00 Build 0)  -->
<svg version="1.1" id="Layer_1" xmlns="http://www.w3.org/2000/svg" xmlns:xlink="http://www.w3.org/1999/xlink" x="0px" y="0px"
	 viewBox="0 0 750.4 85.1" style="enable-background:new 0 0 750.4 85.1;" xml:space="preserve">
<style type="text/css">
	.st0{fill:#233E58;}
</style>
<path class="st0" d="M78,3.6c0,16.7,1.6,32.8-0.4,48.5C75.3,70.4,58,82.9,39.4,82.9c-11.5,0-23-0.1-34.5,0.1
	c-3.5,0.1-5.1-0.8-5.1-4.7C0,65.9-0.5,53.4,0,40.9C0.8,20.1,18.1,3.7,38.8,3.6C51.9,3.5,65,3.6,78,3.6z"/>
<path class="st0" d="M158.7,48.7c6.6,11,13.2,22.1,20.4,34.2c-5.6,0-10.2,0.3-14.7-0.2c-1.3-0.1-2.9-2-3.7-3.4
	c-4.9-8.7-9.6-17.5-14.4-26.3c-2-3.6-8.1-5.8-11.4-3.7c-1,0.7-1.5,2.8-1.5,4.3c-0.2,8-0.3,16,0,24c0.1,4-1.1,6-5.4,5.3
	c-1-0.1-2-0.2-3,0c-4,0.6-5.3-1.1-5.2-5c0.1-12.5,0-25,0-37.5c0-10.5,0.1-21-0.1-31.5c-0.1-3.9,0.9-5.7,5.3-5.5
	c10.8,0.6,21.6,0.2,32.4,1.2c8.4,0.8,15.4,5,18,13.7c2.7,8.8,1.8,17.4-5.4,23.9C167.2,44.9,163.1,46.3,158.7,48.7z M133.5,37.9
	c7.5-0.5,14.3-0.5,20.9-1.6c5.6-0.9,8-4.9,7.9-10.5c-0.1-5.2-2.8-8.9-8.2-9.7c-5.9-0.9-11.9-0.9-17.8-1c-0.9,0-2.7,1.6-2.7,2.5
	C133.4,24.1,133.5,30.5,133.5,37.9z"/>
<path class="st0" d="M355.7,3.6c16.5,0,32.7,0,48.8,0.1c0.9,0,2.4,1.6,2.7,2.6c0.5,1.7,0.1,3.6,0.2,5.5c0.2,3.3-1.3,4.3-4.5,4.2
	c-9.3-0.2-18.7-0.1-28-0.1c-1.8,0-3.6,0-6,0c0,6.2-0.2,12,0.2,17.8c0.1,1,2.7,2.5,4.2,2.5c9,0.2,18,0.4,27,0
	c5.1-0.2,5.1,2.5,5.2,6.2c0.1,3.7-0.6,5.9-5.1,5.7c-9-0.3-18,0-27-0.1c-3.5-0.1-4.7,1.2-4.5,4.6c0.2,5.6,0.1,11.3,0.1,17.7
	c13.6,0,27,0,40.7,0c0,4.4,0,8.2,0,12.2c-17.9,0-35.7,0-53.8,0C355.7,56.4,355.7,30.4,355.7,3.6z"/>
<path class="st0" d="M196.5,82.9c0-26.6,0-52.6,0-78.7c0.8-0.2,1.6-0.6,2.4-0.6c15.2,0,30.3,0,45.5-0.1c2.7,0,3.8,0.9,4,3.7
	c0.6,8.3,0.4,8.7-7.9,8.7c-10,0-19.9,0-30.6,0c0,6.2-0.2,11.9,0.2,17.7c0.1,1,2.7,2.6,4.1,2.6c8.7,0.3,17.3,0.4,26,0
	c4.7-0.2,6.4,1.2,6.4,6.1c-0.1,4.7-1.6,6-6.1,5.8c-8.7-0.3-17.3,0-26-0.1c-3.4-0.1-4.8,1-4.6,4.6c0.2,5.8,0.1,11.6,0.1,17.9
	c11.4,0,22.1,0,32.9,0c7.5,0,9.4,2.5,7.4,10c-0.3,1-2,2.3-3,2.3C230.5,83,213.8,82.9,196.5,82.9z"/>
<path class="st0" d="M713.8,15.9c0,6.3-0.2,11.9,0.2,17.5c0.1,1.1,2.6,2.7,4,2.8c9,0.3,18,0.4,27,0c4.8-0.2,5.5,2,5.5,6
	c0,3.9-0.6,6.2-5.4,6c-8.8-0.4-17.7,0-26.5-0.2c-3.8-0.1-5,1.2-4.8,4.9c0.3,5.6,0.1,11.3,0.1,17.6c6.1,0,11.7,0,17.3,0
	c5.3,0,10.7,0,16,0c6.9,0,9.4,3.5,6.9,10.3c-0.3,1-2.1,2-3.3,2c-16.5,0.1-33,0.1-50,0.1c0-26.4,0-52.6,0-79.4c4.2,0,8.3,0,12.5,0
	c11.5,0,23,0.1,34.5-0.1c3.5-0.1,4.6,1.2,4.7,4.6c0.2,7.9,0.3,7.9-7.8,7.9C734.6,15.9,724.7,15.9,713.8,15.9z"/>
<path class="st0" d="M430.8,3.1c12.6,0.5,24.9,0.2,37,1.8c12.8,1.6,18.7,10.7,18,24.4c-0.6,11-8,18.4-20.1,19.7
	c-7.1,0.7-14.2,1-21.8,1.5c0,10.6,0,21.2,0,32.1c-4.6,0-8.7,0-13.1,0C430.8,56.5,430.8,30.5,430.8,3.1z M443.8,14.6
	c0,7.8-0.1,14.4,0.1,20.9c0,1,2,2.7,3,2.7c5.1,0,10.3-0.1,15.4-0.8c6-0.9,8.9-4.5,9.1-10c0.2-6.3-2.5-10.1-8.9-11.2
	C456.7,15.1,450.7,15.1,443.8,14.6z"/>
<path class="st0" d="M336.2,13.8c-1,0.8-1.7,1.5-2.5,2.1c-6.6,5.1-6.6,5.1-13.6,0.9c-10.1-6.1-24.9-2.8-32.7,7.2
	c-12.9,16.6-4.8,42.9,14.9,47.8c9.8,2.5,18-0.6,24.8-8.8c3.7,2.6,7.2,5,10.6,7.5c-5.1,11-21.5,15.9-34.5,14.1
	c-20.2-2.9-33.3-15.5-35.8-34.1c-2.8-20.5,6.2-38.2,23.1-45.5C307.5-2.1,325.9,1.3,336.2,13.8z"/>
<path class="st0" d="M683.4,3.6c-7.7,19-14.9,36.8-22.1,54.7c-2.9,7.2-6,14.4-8.7,21.7c-1.7,4.7-5.5,2.5-8.5,2.9
	c-2.5,0.3-4.7,0.3-5.9-2.9c-9.5-24.6-19.2-49.2-28.9-73.8c-0.2-0.6-0.3-1.2-0.6-2.6c4.7,0,9.2-0.4,13.5,0.2c1.4,0.2,2.8,2.9,3.5,4.7
	c6.1,16.5,12,33.1,18,49.6c0.5,1.5,1.2,2.9,2.3,5.6c1.1-2.8,1.9-4.4,2.5-6c6.2-16.5,12.4-32.9,18.4-49.5c1.3-3.5,2.9-5.2,6.7-4.7
	C676.4,3.8,679.4,3.6,683.4,3.6z"/>
<path class="st0" d="M498.7,15.9c0-4.5,0-8.1,0-12c20.7,0,41.1,0,61.9,0c0,3.8,0,7.5,0,12c-7.8,0-15.5,0-23.7,0
	c0,22.6,0,44.5,0,66.7c-4.6,0-8.7,0-13.3,0c-0.1-2-0.3-3.9-0.3-5.8c0-18.5-0.1-37,0.1-55.5c0-4.1-1.1-5.6-5.3-5.4
	C511.7,16.2,505.4,15.9,498.7,15.9z"/>
<path class="st0" d="M591.4,43.2c0,11.5-0.1,23,0.1,34.4c0.1,4.1-1.2,5.6-5.4,5.3c-8-0.5-8.1,1.7-8.1-8.1c0-21.8,0-43.6,0.1-65.4
	c0-1.9,0.8-5.4,1.6-5.6c3.5-0.5,7.2-0.2,10.8,0.3c0.6,0.1,1,2.9,1,4.5C591.4,20.3,591.4,31.8,591.4,43.2z"/>
</svg>
